<?xml version="1.0" encoding="utf-8" standalone="no"?>
<!DOCTYPE svg PUBLIC "-//W3C//DTD SVG 1.1//EN"
  "http://www.w3.org/Graphics/SVG/1.1/DTD/svg11.dtd">
<!-- Created with matplotlib (https://matplotlib.org/) -->
<svg height="699.065531pt" version="1.1" viewBox="0 0 698.366844 699.065531" width="698.366844pt" xmlns="http://www.w3.org/2000/svg" xmlns:xlink="http://www.w3.org/1999/xlink">
 <defs>
  <style type="text/css">
*{stroke-linecap:butt;stroke-linejoin:round;}
  </style>
 </defs>
 <g id="figure_1">
  <g id="patch_1">
   <path d="M 0 699.065531 
L 698.366844 699.065531 
L 698.366844 0 
L 0 0 
z
" style="fill:none;"/>
  </g>
  <g id="axes_1">
   <g id="patch_2">
    <path d="M 65.030844 649.716 
L 686.366844 649.716 
L 686.366844 12 
L 65.030844 12 
z
" style="fill:none;"/>
   </g>
   <g id="matplotlib.axis_1">
    <g id="xtick_1">
     <g id="line2d_1">
      <defs>
       <path d="M 0 0 
L 0 4.8 
" id="m9da230c341" style="stroke:#262626;"/>
      </defs>
      <g>
       <use style="fill:#262626;stroke:#262626;" x="109.924519" xlink:href="#m9da230c341" y="649.716"/>
      </g>
     </g>
     <g id="text_1">
      <!-- 22.5 -->
      <defs>
       <path d="M 50.34375 8.453125 
L 50.34375 0 
L 3.03125 0 
Q 2.9375 3.171875 4.046875 6.109375 
Q 5.859375 10.9375 9.828125 15.625 
Q 13.8125 20.3125 21.34375 26.46875 
Q 33.015625 36.03125 37.109375 41.625 
Q 41.21875 47.21875 41.21875 52.203125 
Q 41.21875 57.421875 37.46875 61 
Q 33.734375 64.59375 27.734375 64.59375 
Q 21.390625 64.59375 17.578125 60.78125 
Q 13.765625 56.984375 13.71875 50.25 
L 4.6875 51.171875 
Q 5.609375 61.28125 11.65625 66.578125 
Q 17.71875 71.875 27.9375 71.875 
Q 38.234375 71.875 44.234375 66.15625 
Q 50.25 60.453125 50.25 52 
Q 50.25 47.703125 48.484375 43.546875 
Q 46.734375 39.40625 42.65625 34.8125 
Q 38.578125 30.21875 29.109375 22.21875 
Q 21.1875 15.578125 18.9375 13.203125 
Q 16.703125 10.84375 15.234375 8.453125 
z
" id="ArialMT-50"/>
       <path d="M 9.078125 0 
L 9.078125 10.015625 
L 19.09375 10.015625 
L 19.09375 0 
z
" id="ArialMT-46"/>
       <path d="M 4.15625 18.75 
L 13.375 19.53125 
Q 14.40625 12.796875 18.140625 9.390625 
Q 21.875 6 27.15625 6 
Q 33.5 6 37.890625 10.78125 
Q 42.28125 15.578125 42.28125 23.484375 
Q 42.28125 31 38.0625 35.34375 
Q 33.84375 39.703125 27 39.703125 
Q 22.75 39.703125 19.328125 37.765625 
Q 15.921875 35.84375 13.96875 32.765625 
L 5.71875 33.84375 
L 12.640625 70.609375 
L 48.25 70.609375 
L 48.25 62.203125 
L 19.671875 62.203125 
L 15.828125 42.96875 
Q 22.265625 47.46875 29.34375 47.46875 
Q 38.71875 47.46875 45.15625 40.96875 
Q 51.609375 34.46875 51.609375 24.265625 
Q 51.609375 14.546875 45.953125 7.46875 
Q 39.0625 -1.21875 27.15625 -1.21875 
Q 17.390625 -1.21875 11.203125 4.25 
Q 5.03125 9.71875 4.15625 18.75 
z
" id="ArialMT-53"/>
      </defs>
      <g style="fill:#262626;" transform="translate(94.939597 669.039031)scale(0.154 -0.154)">
       <use xlink:href="#ArialMT-50"/>
       <use x="55.615234" xlink:href="#ArialMT-50"/>
       <use x="111.230469" xlink:href="#ArialMT-46"/>
       <use x="139.013672" xlink:href="#ArialMT-53"/>
      </g>
     </g>
    </g>
    <g id="xtick_2">
     <g id="line2d_2">
      <g>
       <use style="fill:#262626;stroke:#262626;" x="192.975624" xlink:href="#m9da230c341" y="649.716"/>
      </g>
     </g>
     <g id="text_2">
      <!-- 25.0 -->
      <defs>
       <path d="M 4.15625 35.296875 
Q 4.15625 48 6.765625 55.734375 
Q 9.375 63.484375 14.515625 67.671875 
Q 19.671875 71.875 27.484375 71.875 
Q 33.25 71.875 37.59375 69.546875 
Q 41.9375 67.234375 44.765625 62.859375 
Q 47.609375 58.5 49.21875 52.21875 
Q 50.828125 45.953125 50.828125 35.296875 
Q 50.828125 22.703125 48.234375 14.96875 
Q 45.65625 7.234375 40.5 3 
Q 35.359375 -1.21875 27.484375 -1.21875 
Q 17.140625 -1.21875 11.234375 6.203125 
Q 4.15625 15.140625 4.15625 35.296875 
z
M 13.1875 35.296875 
Q 13.1875 17.671875 17.3125 11.828125 
Q 21.4375 6 27.484375 6 
Q 33.546875 6 37.671875 11.859375 
Q 41.796875 17.71875 41.796875 35.296875 
Q 41.796875 52.984375 37.671875 58.78125 
Q 33.546875 64.59375 27.390625 64.59375 
Q 21.34375 64.59375 17.71875 59.46875 
Q 13.1875 52.9375 13.1875 35.296875 
z
" id="ArialMT-48"/>
      </defs>
      <g style="fill:#262626;" transform="translate(177.990702 669.039031)scale(0.154 -0.154)">
       <use xlink:href="#ArialMT-50"/>
       <use x="55.615234" xlink:href="#ArialMT-53"/>
       <use x="111.230469" xlink:href="#ArialMT-46"/>
       <use x="139.013672" xlink:href="#ArialMT-48"/>
      </g>
     </g>
    </g>
    <g id="xtick_3">
     <g id="line2d_3">
      <g>
       <use style="fill:#262626;stroke:#262626;" x="276.026728" xlink:href="#m9da230c341" y="649.716"/>
      </g>
     </g>
     <g id="text_3">
      <!-- 27.5 -->
      <defs>
       <path d="M 4.734375 62.203125 
L 4.734375 70.65625 
L 51.078125 70.65625 
L 51.078125 63.8125 
Q 44.234375 56.546875 37.515625 44.484375 
Q 30.8125 32.421875 27.15625 19.671875 
Q 24.515625 10.6875 23.78125 0 
L 14.75 0 
Q 14.890625 8.453125 18.0625 20.40625 
Q 21.234375 32.375 27.171875 43.484375 
Q 33.109375 54.59375 39.796875 62.203125 
z
" id="ArialMT-55"/>
      </defs>
      <g style="fill:#262626;" transform="translate(261.041806 669.039031)scale(0.154 -0.154)">
       <use xlink:href="#ArialMT-50"/>
       <use x="55.615234" xlink:href="#ArialMT-55"/>
       <use x="111.230469" xlink:href="#ArialMT-46"/>
       <use x="139.013672" xlink:href="#ArialMT-53"/>
      </g>
     </g>
    </g>
    <g id="xtick_4">
     <g id="line2d_4">
      <g>
       <use style="fill:#262626;stroke:#262626;" x="359.077833" xlink:href="#m9da230c341" y="649.716"/>
      </g>
     </g>
     <g id="text_4">
      <!-- 30.0 -->
      <defs>
       <path d="M 4.203125 18.890625 
L 12.984375 20.0625 
Q 14.5 12.59375 18.140625 9.296875 
Q 21.78125 6 27 6 
Q 33.203125 6 37.46875 10.296875 
Q 41.75 14.59375 41.75 20.953125 
Q 41.75 27 37.796875 30.921875 
Q 33.84375 34.859375 27.734375 34.859375 
Q 25.25 34.859375 21.53125 33.890625 
L 22.515625 41.609375 
Q 23.390625 41.5 23.921875 41.5 
Q 29.546875 41.5 34.03125 44.421875 
Q 38.53125 47.359375 38.53125 53.46875 
Q 38.53125 58.296875 35.25 61.46875 
Q 31.984375 64.65625 26.8125 64.65625 
Q 21.6875 64.65625 18.265625 61.421875 
Q 14.84375 58.203125 13.875 51.765625 
L 5.078125 53.328125 
Q 6.6875 62.15625 12.390625 67.015625 
Q 18.109375 71.875 26.609375 71.875 
Q 32.46875 71.875 37.390625 69.359375 
Q 42.328125 66.84375 44.9375 62.5 
Q 47.5625 58.15625 47.5625 53.265625 
Q 47.5625 48.640625 45.0625 44.828125 
Q 42.578125 41.015625 37.703125 38.765625 
Q 44.046875 37.3125 47.5625 32.6875 
Q 51.078125 28.078125 51.078125 21.140625 
Q 51.078125 11.765625 44.234375 5.25 
Q 37.40625 -1.265625 26.953125 -1.265625 
Q 17.53125 -1.265625 11.296875 4.34375 
Q 5.078125 9.96875 4.203125 18.890625 
z
" id="ArialMT-51"/>
      </defs>
      <g style="fill:#262626;" transform="translate(344.092911 669.039031)scale(0.154 -0.154)">
       <use xlink:href="#ArialMT-51"/>
       <use x="55.615234" xlink:href="#ArialMT-48"/>
       <use x="111.230469" xlink:href="#ArialMT-46"/>
       <use x="139.013672" xlink:href="#ArialMT-48"/>
      </g>
     </g>
    </g>
    <g id="xtick_5">
     <g id="line2d_5">
      <g>
       <use style="fill:#262626;stroke:#262626;" x="442.128937" xlink:href="#m9da230c341" y="649.716"/>
      </g>
     </g>
     <g id="text_5">
      <!-- 32.5 -->
      <g style="fill:#262626;" transform="translate(427.144015 669.039031)scale(0.154 -0.154)">
       <use xlink:href="#ArialMT-51"/>
       <use x="55.615234" xlink:href="#ArialMT-50"/>
       <use x="111.230469" xlink:href="#ArialMT-46"/>
       <use x="139.013672" xlink:href="#ArialMT-53"/>
      </g>
     </g>
    </g>
    <g id="xtick_6">
     <g id="line2d_6">
      <g>
       <use style="fill:#262626;stroke:#262626;" x="525.180041" xlink:href="#m9da230c341" y="649.716"/>
      </g>
     </g>
     <g id="text_6">
      <!-- 35.0 -->
      <g style="fill:#262626;" transform="translate(510.19512 669.039031)scale(0.154 -0.154)">
       <use xlink:href="#ArialMT-51"/>
       <use x="55.615234" xlink:href="#ArialMT-53"/>
       <use x="111.230469" xlink:href="#ArialMT-46"/>
       <use x="139.013672" xlink:href="#ArialMT-48"/>
      </g>
     </g>
    </g>
    <g id="xtick_7">
     <g id="line2d_7">
      <g>
       <use style="fill:#262626;stroke:#262626;" x="608.231146" xlink:href="#m9da230c341" y="649.716"/>
      </g>
     </g>
     <g id="text_7">
      <!-- 37.5 -->
      <g style="fill:#262626;" transform="translate(593.246224 669.039031)scale(0.154 -0.154)">
       <use xlink:href="#ArialMT-51"/>
       <use x="55.615234" xlink:href="#ArialMT-55"/>
       <use x="111.230469" xlink:href="#ArialMT-46"/>
       <use x="139.013672" xlink:href="#ArialMT-53"/>
      </g>
     </g>
    </g>
    <g id="text_8">
     <!-- Navy Goals -->
     <defs>
      <path d="M 7.625 0 
L 7.625 71.578125 
L 17.328125 71.578125 
L 54.9375 15.375 
L 54.9375 71.578125 
L 64.015625 71.578125 
L 64.015625 0 
L 54.296875 0 
L 16.703125 56.25 
L 16.703125 0 
z
" id="ArialMT-78"/>
      <path d="M 40.4375 6.390625 
Q 35.546875 2.25 31.03125 0.53125 
Q 26.515625 -1.171875 21.34375 -1.171875 
Q 12.796875 -1.171875 8.203125 3 
Q 3.609375 7.171875 3.609375 13.671875 
Q 3.609375 17.484375 5.34375 20.625 
Q 7.078125 23.78125 9.890625 25.6875 
Q 12.703125 27.59375 16.21875 28.5625 
Q 18.796875 29.25 24.03125 29.890625 
Q 34.671875 31.15625 39.703125 32.90625 
Q 39.75 34.71875 39.75 35.203125 
Q 39.75 40.578125 37.25 42.78125 
Q 33.890625 45.75 27.25 45.75 
Q 21.046875 45.75 18.09375 43.578125 
Q 15.140625 41.40625 13.71875 35.890625 
L 5.125 37.0625 
Q 6.296875 42.578125 8.984375 45.96875 
Q 11.671875 49.359375 16.75 51.1875 
Q 21.828125 53.03125 28.515625 53.03125 
Q 35.15625 53.03125 39.296875 51.46875 
Q 43.453125 49.90625 45.40625 47.53125 
Q 47.359375 45.171875 48.140625 41.546875 
Q 48.578125 39.3125 48.578125 33.453125 
L 48.578125 21.734375 
Q 48.578125 9.46875 49.140625 6.21875 
Q 49.703125 2.984375 51.375 0 
L 42.1875 0 
Q 40.828125 2.734375 40.4375 6.390625 
z
M 39.703125 26.03125 
Q 34.90625 24.078125 25.34375 22.703125 
Q 19.921875 21.921875 17.671875 20.9375 
Q 15.4375 19.96875 14.203125 18.09375 
Q 12.984375 16.21875 12.984375 13.921875 
Q 12.984375 10.40625 15.640625 8.0625 
Q 18.3125 5.71875 23.4375 5.71875 
Q 28.515625 5.71875 32.46875 7.9375 
Q 36.421875 10.15625 38.28125 14.015625 
Q 39.703125 17 39.703125 22.796875 
z
" id="ArialMT-97"/>
      <path d="M 21 0 
L 1.265625 51.859375 
L 10.546875 51.859375 
L 21.6875 20.796875 
Q 23.484375 15.765625 25 10.359375 
Q 26.171875 14.453125 28.265625 20.21875 
L 39.796875 51.859375 
L 48.828125 51.859375 
L 29.203125 0 
z
" id="ArialMT-118"/>
      <path d="M 6.203125 -19.96875 
L 5.21875 -11.71875 
Q 8.109375 -12.5 10.25 -12.5 
Q 13.1875 -12.5 14.9375 -11.515625 
Q 16.703125 -10.546875 17.828125 -8.796875 
Q 18.65625 -7.46875 20.515625 -2.25 
Q 20.75 -1.515625 21.296875 -0.09375 
L 1.609375 51.859375 
L 11.078125 51.859375 
L 21.875 21.828125 
Q 23.96875 16.109375 25.640625 9.8125 
Q 27.15625 15.875 29.25 21.625 
L 40.328125 51.859375 
L 49.125 51.859375 
L 29.390625 -0.875 
Q 26.21875 -9.421875 24.46875 -12.640625 
Q 22.125 -17 19.09375 -19.015625 
Q 16.0625 -21.046875 11.859375 -21.046875 
Q 9.328125 -21.046875 6.203125 -19.96875 
z
" id="ArialMT-121"/>
      <path id="ArialMT-32"/>
      <path d="M 41.21875 28.078125 
L 41.21875 36.46875 
L 71.53125 36.53125 
L 71.53125 9.96875 
Q 64.546875 4.390625 57.125 1.578125 
Q 49.703125 -1.21875 41.890625 -1.21875 
Q 31.34375 -1.21875 22.71875 3.296875 
Q 14.109375 7.8125 9.71875 16.359375 
Q 5.328125 24.90625 5.328125 35.453125 
Q 5.328125 45.90625 9.6875 54.953125 
Q 14.0625 64.015625 22.265625 68.40625 
Q 30.46875 72.796875 41.15625 72.796875 
Q 48.921875 72.796875 55.1875 70.28125 
Q 61.46875 67.78125 65.03125 63.28125 
Q 68.609375 58.796875 70.453125 51.5625 
L 61.921875 49.21875 
Q 60.296875 54.6875 57.90625 57.8125 
Q 55.515625 60.9375 51.0625 62.8125 
Q 46.625 64.703125 41.21875 64.703125 
Q 34.71875 64.703125 29.984375 62.71875 
Q 25.25 60.75 22.34375 57.515625 
Q 19.4375 54.296875 17.828125 50.4375 
Q 15.09375 43.796875 15.09375 36.03125 
Q 15.09375 26.46875 18.390625 20.015625 
Q 21.6875 13.578125 27.984375 10.453125 
Q 34.28125 7.328125 41.359375 7.328125 
Q 47.515625 7.328125 53.375 9.6875 
Q 59.234375 12.0625 62.25 14.75 
L 62.25 28.078125 
z
" id="ArialMT-71"/>
      <path d="M 3.328125 25.921875 
Q 3.328125 40.328125 11.328125 47.265625 
Q 18.015625 53.03125 27.640625 53.03125 
Q 38.328125 53.03125 45.109375 46.015625 
Q 51.90625 39.015625 51.90625 26.65625 
Q 51.90625 16.65625 48.90625 10.90625 
Q 45.90625 5.171875 40.15625 2 
Q 34.421875 -1.171875 27.640625 -1.171875 
Q 16.75 -1.171875 10.03125 5.8125 
Q 3.328125 12.796875 3.328125 25.921875 
z
M 12.359375 25.921875 
Q 12.359375 15.96875 16.703125 11.015625 
Q 21.046875 6.0625 27.640625 6.0625 
Q 34.1875 6.0625 38.53125 11.03125 
Q 42.875 16.015625 42.875 26.21875 
Q 42.875 35.84375 38.5 40.796875 
Q 34.125 45.75 27.640625 45.75 
Q 21.046875 45.75 16.703125 40.8125 
Q 12.359375 35.890625 12.359375 25.921875 
z
" id="ArialMT-111"/>
      <path d="M 6.390625 0 
L 6.390625 71.578125 
L 15.1875 71.578125 
L 15.1875 0 
z
" id="ArialMT-108"/>
      <path d="M 3.078125 15.484375 
L 11.765625 16.84375 
Q 12.5 11.625 15.84375 8.84375 
Q 19.1875 6.0625 25.203125 6.0625 
Q 31.25 6.0625 34.171875 8.515625 
Q 37.109375 10.984375 37.109375 14.3125 
Q 37.109375 17.28125 34.515625 19 
Q 32.71875 20.171875 25.53125 21.96875 
Q 15.875 24.421875 12.140625 26.203125 
Q 8.40625 27.984375 6.46875 31.125 
Q 4.546875 34.28125 4.546875 38.09375 
Q 4.546875 41.546875 6.125 44.5 
Q 7.71875 47.46875 10.453125 49.421875 
Q 12.5 50.921875 16.03125 51.96875 
Q 19.578125 53.03125 23.640625 53.03125 
Q 29.734375 53.03125 34.34375 51.265625 
Q 38.96875 49.515625 41.15625 46.5 
Q 43.359375 43.5 44.1875 38.484375 
L 35.59375 37.3125 
Q 35.015625 41.3125 32.203125 43.546875 
Q 29.390625 45.796875 24.265625 45.796875 
Q 18.21875 45.796875 15.625 43.796875 
Q 13.03125 41.796875 13.03125 39.109375 
Q 13.03125 37.40625 14.109375 36.03125 
Q 15.1875 34.625 17.484375 33.6875 
Q 18.796875 33.203125 25.25 31.453125 
Q 34.578125 28.953125 38.25 27.359375 
Q 41.9375 25.78125 44.03125 22.75 
Q 46.140625 19.734375 46.140625 15.234375 
Q 46.140625 10.84375 43.578125 6.953125 
Q 41.015625 3.078125 36.171875 0.953125 
Q 31.34375 -1.171875 25.25 -1.171875 
Q 15.140625 -1.171875 9.84375 3.03125 
Q 4.546875 7.234375 3.078125 15.484375 
z
" id="ArialMT-115"/>
     </defs>
     <g style="fill:#262626;" transform="translate(332.285281 688.329656)scale(0.168 -0.168)">
      <use xlink:href="#ArialMT-78"/>
      <use x="72.216797" xlink:href="#ArialMT-97"/>
      <use x="127.832031" xlink:href="#ArialMT-118"/>
      <use x="177.832031" xlink:href="#ArialMT-121"/>
      <use x="227.832031" xlink:href="#ArialMT-32"/>
      <use x="255.615234" xlink:href="#ArialMT-71"/>
      <use x="333.398438" xlink:href="#ArialMT-111"/>
      <use x="389.013672" xlink:href="#ArialMT-97"/>
      <use x="444.628906" xlink:href="#ArialMT-108"/>
      <use x="466.845703" xlink:href="#ArialMT-115"/>
     </g>
    </g>
   </g>
   <g id="matplotlib.axis_2">
    <g id="ytick_1">
     <g id="line2d_8">
      <defs>
       <path d="M 0 0 
L -4.8 0 
" id="mcefb0f2916" style="stroke:#262626;"/>
      </defs>
      <g>
       <use style="fill:#262626;stroke:#262626;" x="65.030844" xlink:href="#mcefb0f2916" y="620.69005"/>
      </g>
     </g>
     <g id="text_9">
      <!-- 5.0 -->
      <g style="fill:#262626;" transform="translate(35.324844 626.201566)scale(0.154 -0.154)">
       <use xlink:href="#ArialMT-53"/>
       <use x="55.615234" xlink:href="#ArialMT-46"/>
       <use x="83.398438" xlink:href="#ArialMT-48"/>
      </g>
     </g>
    </g>
    <g id="ytick_2">
     <g id="line2d_9">
      <g>
       <use style="fill:#262626;stroke:#262626;" x="65.030844" xlink:href="#mcefb0f2916" y="540.184284"/>
      </g>
     </g>
     <g id="text_10">
      <!-- 7.5 -->
      <g style="fill:#262626;" transform="translate(35.324844 545.6958)scale(0.154 -0.154)">
       <use xlink:href="#ArialMT-55"/>
       <use x="55.615234" xlink:href="#ArialMT-46"/>
       <use x="83.398438" xlink:href="#ArialMT-53"/>
      </g>
     </g>
    </g>
    <g id="ytick_3">
     <g id="line2d_10">
      <g>
       <use style="fill:#262626;stroke:#262626;" x="65.030844" xlink:href="#mcefb0f2916" y="459.678517"/>
      </g>
     </g>
     <g id="text_11">
      <!-- 10.0 -->
      <defs>
       <path d="M 37.25 0 
L 28.46875 0 
L 28.46875 56 
Q 25.296875 52.984375 20.140625 49.953125 
Q 14.984375 46.921875 10.890625 45.40625 
L 10.890625 53.90625 
Q 18.265625 57.375 23.78125 62.296875 
Q 29.296875 67.234375 31.59375 71.875 
L 37.25 71.875 
z
" id="ArialMT-49"/>
      </defs>
      <g style="fill:#262626;" transform="translate(26.761 465.190033)scale(0.154 -0.154)">
       <use xlink:href="#ArialMT-49"/>
       <use x="55.615234" xlink:href="#ArialMT-48"/>
       <use x="111.230469" xlink:href="#ArialMT-46"/>
       <use x="139.013672" xlink:href="#ArialMT-48"/>
      </g>
     </g>
    </g>
    <g id="ytick_4">
     <g id="line2d_11">
      <g>
       <use style="fill:#262626;stroke:#262626;" x="65.030844" xlink:href="#mcefb0f2916" y="379.172751"/>
      </g>
     </g>
     <g id="text_12">
      <!-- 12.5 -->
      <g style="fill:#262626;" transform="translate(26.761 384.684267)scale(0.154 -0.154)">
       <use xlink:href="#ArialMT-49"/>
       <use x="55.615234" xlink:href="#ArialMT-50"/>
       <use x="111.230469" xlink:href="#ArialMT-46"/>
       <use x="139.013672" xlink:href="#ArialMT-53"/>
      </g>
     </g>
    </g>
    <g id="ytick_5">
     <g id="line2d_12">
      <g>
       <use style="fill:#262626;stroke:#262626;" x="65.030844" xlink:href="#mcefb0f2916" y="298.666985"/>
      </g>
     </g>
     <g id="text_13">
      <!-- 15.0 -->
      <g style="fill:#262626;" transform="translate(26.761 304.1785)scale(0.154 -0.154)">
       <use xlink:href="#ArialMT-49"/>
       <use x="55.615234" xlink:href="#ArialMT-53"/>
       <use x="111.230469" xlink:href="#ArialMT-46"/>
       <use x="139.013672" xlink:href="#ArialMT-48"/>
      </g>
     </g>
    </g>
    <g id="ytick_6">
     <g id="line2d_13">
      <g>
       <use style="fill:#262626;stroke:#262626;" x="65.030844" xlink:href="#mcefb0f2916" y="218.161218"/>
      </g>
     </g>
     <g id="text_14">
      <!-- 17.5 -->
      <g style="fill:#262626;" transform="translate(26.761 223.672734)scale(0.154 -0.154)">
       <use xlink:href="#ArialMT-49"/>
       <use x="55.615234" xlink:href="#ArialMT-55"/>
       <use x="111.230469" xlink:href="#ArialMT-46"/>
       <use x="139.013672" xlink:href="#ArialMT-53"/>
      </g>
     </g>
    </g>
    <g id="ytick_7">
     <g id="line2d_14">
      <g>
       <use style="fill:#262626;stroke:#262626;" x="65.030844" xlink:href="#mcefb0f2916" y="137.655452"/>
      </g>
     </g>
     <g id="text_15">
      <!-- 20.0 -->
      <g style="fill:#262626;" transform="translate(26.761 143.166967)scale(0.154 -0.154)">
       <use xlink:href="#ArialMT-50"/>
       <use x="55.615234" xlink:href="#ArialMT-48"/>
       <use x="111.230469" xlink:href="#ArialMT-46"/>
       <use x="139.013672" xlink:href="#ArialMT-48"/>
      </g>
     </g>
    </g>
    <g id="ytick_8">
     <g id="line2d_15">
      <g>
       <use style="fill:#262626;stroke:#262626;" x="65.030844" xlink:href="#mcefb0f2916" y="57.149685"/>
      </g>
     </g>
     <g id="text_16">
      <!-- 22.5 -->
      <g style="fill:#262626;" transform="translate(26.761 62.661201)scale(0.154 -0.154)">
       <use xlink:href="#ArialMT-50"/>
       <use x="55.615234" xlink:href="#ArialMT-50"/>
       <use x="111.230469" xlink:href="#ArialMT-46"/>
       <use x="139.013672" xlink:href="#ArialMT-53"/>
      </g>
     </g>
    </g>
    <g id="text_17">
     <!-- Navy Possessions -->
     <defs>
      <path d="M 7.71875 0 
L 7.71875 71.578125 
L 34.71875 71.578125 
Q 41.84375 71.578125 45.609375 70.90625 
Q 50.875 70.015625 54.4375 67.546875 
Q 58.015625 65.09375 60.1875 60.640625 
Q 62.359375 56.203125 62.359375 50.875 
Q 62.359375 41.75 56.546875 35.421875 
Q 50.734375 29.109375 35.546875 29.109375 
L 17.1875 29.109375 
L 17.1875 0 
z
M 17.1875 37.546875 
L 35.6875 37.546875 
Q 44.875 37.546875 48.734375 40.96875 
Q 52.59375 44.390625 52.59375 50.59375 
Q 52.59375 55.078125 50.3125 58.265625 
Q 48.046875 61.46875 44.34375 62.5 
Q 41.9375 63.140625 35.5 63.140625 
L 17.1875 63.140625 
z
" id="ArialMT-80"/>
      <path d="M 42.09375 16.703125 
L 51.171875 15.578125 
Q 49.03125 7.625 43.21875 3.21875 
Q 37.40625 -1.171875 28.375 -1.171875 
Q 17 -1.171875 10.328125 5.828125 
Q 3.65625 12.84375 3.65625 25.484375 
Q 3.65625 38.578125 10.390625 45.796875 
Q 17.140625 53.03125 27.875 53.03125 
Q 38.28125 53.03125 44.875 45.953125 
Q 51.46875 38.875 51.46875 26.03125 
Q 51.46875 25.25 51.421875 23.6875 
L 12.75 23.6875 
Q 13.234375 15.140625 17.578125 10.59375 
Q 21.921875 6.0625 28.421875 6.0625 
Q 33.25 6.0625 36.671875 8.59375 
Q 40.09375 11.140625 42.09375 16.703125 
z
M 13.234375 30.90625 
L 42.1875 30.90625 
Q 41.609375 37.453125 38.875 40.71875 
Q 34.671875 45.796875 27.984375 45.796875 
Q 21.921875 45.796875 17.796875 41.75 
Q 13.671875 37.703125 13.234375 30.90625 
z
" id="ArialMT-101"/>
      <path d="M 6.640625 61.46875 
L 6.640625 71.578125 
L 15.4375 71.578125 
L 15.4375 61.46875 
z
M 6.640625 0 
L 6.640625 51.859375 
L 15.4375 51.859375 
L 15.4375 0 
z
" id="ArialMT-105"/>
      <path d="M 6.59375 0 
L 6.59375 51.859375 
L 14.5 51.859375 
L 14.5 44.484375 
Q 20.21875 53.03125 31 53.03125 
Q 35.6875 53.03125 39.625 51.34375 
Q 43.5625 49.65625 45.515625 46.921875 
Q 47.46875 44.1875 48.25 40.4375 
Q 48.734375 37.984375 48.734375 31.890625 
L 48.734375 0 
L 39.9375 0 
L 39.9375 31.546875 
Q 39.9375 36.921875 38.90625 39.578125 
Q 37.890625 42.234375 35.28125 43.8125 
Q 32.671875 45.40625 29.15625 45.40625 
Q 23.53125 45.40625 19.453125 41.84375 
Q 15.375 38.28125 15.375 28.328125 
L 15.375 0 
z
" id="ArialMT-110"/>
     </defs>
     <g style="fill:#262626;" transform="translate(19.225125 399.483375)rotate(-90)scale(0.168 -0.168)">
      <use xlink:href="#ArialMT-78"/>
      <use x="72.216797" xlink:href="#ArialMT-97"/>
      <use x="127.832031" xlink:href="#ArialMT-118"/>
      <use x="177.832031" xlink:href="#ArialMT-121"/>
      <use x="227.832031" xlink:href="#ArialMT-32"/>
      <use x="255.615234" xlink:href="#ArialMT-80"/>
      <use x="322.314453" xlink:href="#ArialMT-111"/>
      <use x="377.929688" xlink:href="#ArialMT-115"/>
      <use x="427.929688" xlink:href="#ArialMT-115"/>
      <use x="477.929688" xlink:href="#ArialMT-101"/>
      <use x="533.544922" xlink:href="#ArialMT-115"/>
      <use x="583.544922" xlink:href="#ArialMT-115"/>
      <use x="633.544922" xlink:href="#ArialMT-105"/>
      <use x="655.761719" xlink:href="#ArialMT-111"/>
      <use x="711.376953" xlink:href="#ArialMT-110"/>
      <use x="766.992188" xlink:href="#ArialMT-115"/>
     </g>
    </g>
   </g>
   <g id="PathCollection_1">
    <path clip-path="url(#p2a4293aff5)" d="M 491.9596 152.655452 
C 495.937646 152.655452 499.753298 151.074957 502.566201 148.262053 
C 505.379105 145.44915 506.9596 141.633498 506.9596 137.655452 
C 506.9596 133.677405 505.379105 129.861754 502.566201 127.04885 
C 499.753298 124.235946 495.937646 122.655452 491.9596 122.655452 
C 487.981553 122.655452 484.165902 124.235946 481.352998 127.04885 
C 478.540094 129.861754 476.9596 133.677405 476.9596 137.655452 
C 476.9596 141.633498 478.540094 145.44915 481.352998 148.262053 
C 484.165902 151.074957 487.981553 152.655452 491.9596 152.655452 
z
" style="fill:#f7fbff;fill-opacity:0.95;stroke:#ffffff;stroke-opacity:0.95;stroke-width:0.75;"/>
    <path clip-path="url(#p2a4293aff5)" d="M 591.620925 120.728397 
C 595.671969 120.728397 599.557639 119.1189 602.422159 116.25438 
C 605.28668 113.389859 606.896177 109.504189 606.896177 105.453145 
C 606.896177 101.402101 605.28668 97.516431 602.422159 94.651911 
C 599.557639 91.78739 595.671969 90.177893 591.620925 90.177893 
C 587.569881 90.177893 583.684211 91.78739 580.819691 94.651911 
C 577.95517 97.516431 576.345673 101.402101 576.345673 105.453145 
C 576.345673 109.504189 577.95517 113.389859 580.819691 116.25438 
C 583.684211 119.1189 587.569881 120.728397 591.620925 120.728397 
z
" style="fill:#eef5fc;fill-opacity:0.95;stroke:#ffffff;stroke-opacity:0.95;stroke-width:0.75;"/>
    <path clip-path="url(#p2a4293aff5)" d="M 491.9596 152.655452 
C 495.937646 152.655452 499.753298 151.074957 502.566201 148.262053 
C 505.379105 145.44915 506.9596 141.633498 506.9596 137.655452 
C 506.9596 133.677405 505.379105 129.861754 502.566201 127.04885 
C 499.753298 124.235946 495.937646 122.655452 491.9596 122.655452 
C 487.981553 122.655452 484.165902 124.235946 481.352998 127.04885 
C 478.540094 129.861754 476.9596 133.677405 476.9596 137.655452 
C 476.9596 141.633498 478.540094 145.44915 481.352998 148.262053 
C 484.165902 151.074957 487.981553 152.655452 491.9596 152.655452 
z
" style="fill:#e3eef9;fill-opacity:0.95;stroke:#ffffff;stroke-opacity:0.95;stroke-width:0.75;"/>
    <path clip-path="url(#p2a4293aff5)" d="M 93.314298 630.69005 
C 95.966329 630.69005 98.510097 629.636387 100.385366 627.761118 
C 102.260635 625.885849 103.314298 623.342081 103.314298 620.69005 
C 103.314298 618.038019 102.260635 615.494252 100.385366 613.618983 
C 98.510097 611.743713 95.966329 610.69005 93.314298 610.69005 
C 90.662267 610.69005 88.1185 611.743713 86.243231 613.618983 
C 84.367961 615.494252 83.314298 618.038019 83.314298 620.69005 
C 83.314298 623.342081 84.367961 625.885849 86.243231 627.761118 
C 88.1185 629.636387 90.662267 630.69005 93.314298 630.69005 
z
" style="fill:#d9e8f5;fill-opacity:0.95;stroke:#ffffff;stroke-opacity:0.95;stroke-width:0.75;"/>
    <path clip-path="url(#p2a4293aff5)" d="M 392.298274 375.981542 
C 395.722032 375.981542 399.006022 374.621269 401.426984 372.200307 
C 403.847946 369.779345 405.208219 366.495355 405.208219 363.071598 
C 405.208219 359.64784 403.847946 356.36385 401.426984 353.942888 
C 399.006022 351.521926 395.722032 350.161653 392.298274 350.161653 
C 388.874517 350.161653 385.590527 351.521926 383.169565 353.942888 
C 380.748603 356.36385 379.38833 359.64784 379.38833 363.071598 
C 379.38833 366.495355 380.748603 369.779345 383.169565 372.200307 
C 385.590527 374.621269 388.874517 375.981542 392.298274 375.981542 
z
" style="fill:#d0e1f2;fill-opacity:0.95;stroke:#ffffff;stroke-opacity:0.95;stroke-width:0.75;"/>
    <path clip-path="url(#p2a4293aff5)" d="M 392.298274 216.493822 
C 396.126151 216.493822 399.797764 214.97299 402.504482 212.266272 
C 405.211199 209.559554 406.732031 205.887942 406.732031 202.060065 
C 406.732031 198.232188 405.211199 194.560575 402.504482 191.853858 
C 399.797764 189.14714 396.126151 187.626308 392.298274 187.626308 
C 388.470397 187.626308 384.798785 189.14714 382.092067 191.853858 
C 379.385349 194.560575 377.864518 198.232188 377.864518 202.060065 
C 377.864518 205.887942 379.385349 209.559554 382.092067 212.266272 
C 384.798785 214.97299 388.470397 216.493822 392.298274 216.493822 
z
" style="fill:#c6dbef;fill-opacity:0.95;stroke:#ffffff;stroke-opacity:0.95;stroke-width:0.75;"/>
    <path clip-path="url(#p2a4293aff5)" d="M 658.061809 248.404507 
C 661.812347 248.404507 665.409778 246.914402 668.061809 244.262371 
C 670.71384 241.61034 672.203944 238.01291 672.203944 234.262371 
C 672.203944 230.511833 670.71384 226.914402 668.061809 224.262371 
C 665.409778 221.61034 661.812347 220.120236 658.061809 220.120236 
C 654.31127 220.120236 650.71384 221.61034 648.061809 224.262371 
C 645.409778 226.914402 643.919673 230.511833 643.919673 234.262371 
C 643.919673 238.01291 645.409778 241.61034 648.061809 244.262371 
C 650.71384 246.914402 654.31127 248.404507 658.061809 248.404507 
z
" style="fill:#b7d4ea;fill-opacity:0.95;stroke:#ffffff;stroke-opacity:0.95;stroke-width:0.75;"/>
    <path clip-path="url(#p2a4293aff5)" d="M 425.518716 216.493822 
C 429.346593 216.493822 433.018206 214.97299 435.724923 212.266272 
C 438.431641 209.559554 439.952473 205.887942 439.952473 202.060065 
C 439.952473 198.232188 438.431641 194.560575 435.724923 191.853858 
C 433.018206 189.14714 429.346593 187.626308 425.518716 187.626308 
C 421.690839 187.626308 418.019227 189.14714 415.312509 191.853858 
C 412.605791 194.560575 411.084959 198.232188 411.084959 202.060065 
C 411.084959 205.887942 412.605791 209.559554 415.312509 212.266272 
C 418.019227 214.97299 421.690839 216.493822 425.518716 216.493822 
z
" style="fill:#a6cee4;fill-opacity:0.95;stroke:#ffffff;stroke-opacity:0.95;stroke-width:0.75;"/>
    <path clip-path="url(#p2a4293aff5)" d="M 359.077833 344.098048 
C 362.58614 344.098048 365.951228 342.704182 368.431976 340.223435 
C 370.912724 337.742687 372.306589 334.377598 372.306589 330.869291 
C 372.306589 327.360984 370.912724 323.995896 368.431976 321.515148 
C 365.951228 319.0344 362.58614 317.640535 359.077833 317.640535 
C 355.569525 317.640535 352.204437 319.0344 349.723689 321.515148 
C 347.242941 323.995896 345.849076 327.360984 345.849076 330.869291 
C 345.849076 334.377598 347.242941 337.742687 349.723689 340.223435 
C 352.204437 342.704182 355.569525 344.098048 359.077833 344.098048 
z
" style="fill:#94c4df;fill-opacity:0.95;stroke:#ffffff;stroke-opacity:0.95;stroke-width:0.75;"/>
    <path clip-path="url(#p2a4293aff5)" d="M 392.298274 280.309051 
C 395.969845 280.309051 399.491532 278.850321 402.087724 276.254128 
C 404.683917 273.657936 406.142647 270.136249 406.142647 266.464678 
C 406.142647 262.793107 404.683917 259.27142 402.087724 256.675228 
C 399.491532 254.079035 395.969845 252.620305 392.298274 252.620305 
C 388.626704 252.620305 385.105017 254.079035 382.508824 256.675228 
C 379.912632 259.27142 378.453901 262.793107 378.453901 266.464678 
C 378.453901 270.136249 379.912632 273.657936 382.508824 276.254128 
C 385.105017 278.850321 388.626704 280.309051 392.298274 280.309051 
z
" style="fill:#7fb9da;fill-opacity:0.95;stroke:#ffffff;stroke-opacity:0.95;stroke-width:0.75;"/>
    <path clip-path="url(#p2a4293aff5)" d="M 359.077833 280.309051 
C 362.749403 280.309051 366.27109 278.850321 368.867283 276.254128 
C 371.463475 273.657936 372.922206 270.136249 372.922206 266.464678 
C 372.922206 262.793107 371.463475 259.27142 368.867283 256.675228 
C 366.27109 254.079035 362.749403 252.620305 359.077833 252.620305 
C 355.406262 252.620305 351.884575 254.079035 349.288382 256.675228 
C 346.69219 259.27142 345.233459 262.793107 345.233459 266.464678 
C 345.233459 270.136249 346.69219 273.657936 349.288382 276.254128 
C 351.884575 278.850321 355.406262 280.309051 359.077833 280.309051 
z
" style="fill:#6aaed6;fill-opacity:0.95;stroke:#ffffff;stroke-opacity:0.95;stroke-width:0.75;"/>
    <path clip-path="url(#p2a4293aff5)" d="M 525.180041 88.79647 
C 529.302791 88.79647 533.257239 87.158484 536.172463 84.24326 
C 539.087687 81.328036 540.725673 77.373588 540.725673 73.250839 
C 540.725673 69.128089 539.087687 65.173641 536.172463 62.258417 
C 533.257239 59.343193 529.302791 57.705207 525.180041 57.705207 
C 521.057292 57.705207 517.102844 59.343193 514.18762 62.258417 
C 511.272396 65.173641 509.63441 69.128089 509.63441 73.250839 
C 509.63441 77.373588 511.272396 81.328036 514.18762 84.24326 
C 517.102844 87.158484 521.057292 88.79647 525.180041 88.79647 
z
" style="fill:#5ba3d0;fill-opacity:0.95;stroke:#ffffff;stroke-opacity:0.95;stroke-width:0.75;"/>
    <path clip-path="url(#p2a4293aff5)" d="M 658.061809 120.728397 
C 662.112853 120.728397 665.998522 119.1189 668.863043 116.25438 
C 671.727564 113.389859 673.337061 109.504189 673.337061 105.453145 
C 673.337061 101.402101 671.727564 97.516431 668.863043 94.651911 
C 665.998522 91.78739 662.112853 90.177893 658.061809 90.177893 
C 654.010764 90.177893 650.125095 91.78739 647.260574 94.651911 
C 644.396053 97.516431 642.786556 101.402101 642.786556 105.453145 
C 642.786556 109.504189 644.396053 113.389859 647.260574 116.25438 
C 650.125095 119.1189 654.010764 120.728397 658.061809 120.728397 
z
" style="fill:#4a98c9;fill-opacity:0.95;stroke:#ffffff;stroke-opacity:0.95;stroke-width:0.75;"/>
    <path clip-path="url(#p2a4293aff5)" d="M 392.298274 56.85992 
C 396.491504 56.85992 400.513553 55.193933 403.478614 52.228872 
C 406.443675 49.263811 408.109663 45.241761 408.109663 41.048532 
C 408.109663 36.855303 406.443675 32.833253 403.478614 29.868192 
C 400.513553 26.903131 396.491504 25.237144 392.298274 25.237144 
C 388.105045 25.237144 384.082995 26.903131 381.117934 29.868192 
C 378.152874 32.833253 376.486886 36.855303 376.486886 41.048532 
C 376.486886 45.241761 378.152874 49.263811 381.117934 52.228872 
C 384.082995 55.193933 388.105045 56.85992 392.298274 56.85992 
z
" style="fill:#3b8bc2;fill-opacity:0.95;stroke:#ffffff;stroke-opacity:0.95;stroke-width:0.75;"/>
    <path clip-path="url(#p2a4293aff5)" d="M 325.857391 598.896074 
C 328.617712 598.896074 331.26535 597.799386 333.217192 595.847545 
C 335.169033 593.895703 336.265721 591.248065 336.265721 588.487744 
C 336.265721 585.727422 335.169033 583.079785 333.217192 581.127943 
C 331.26535 579.176101 328.617712 578.079414 325.857391 578.079414 
C 323.097069 578.079414 320.449432 579.176101 318.49759 581.127943 
C 316.545748 583.079785 315.449061 585.727422 315.449061 588.487744 
C 315.449061 591.248065 316.545748 593.895703 318.49759 595.847545 
C 320.449432 597.799386 323.097069 598.896074 325.857391 598.896074 
z
" style="fill:#2e7ebc;fill-opacity:0.95;stroke:#ffffff;stroke-opacity:0.95;stroke-width:0.75;"/>
    <path clip-path="url(#p2a4293aff5)" d="M 126.53474 503.427829 
C 129.597042 503.427829 132.534332 502.211164 134.699706 500.04579 
C 136.86508 497.880416 138.081746 494.943126 138.081746 491.880824 
C 138.081746 488.818522 136.86508 485.881232 134.699706 483.715858 
C 132.534332 481.550484 129.597042 480.333819 126.53474 480.333819 
C 123.472438 480.333819 120.535149 481.550484 118.369774 483.715858 
C 116.2044 485.881232 114.987735 488.818522 114.987735 491.880824 
C 114.987735 494.943126 116.2044 497.880416 118.369774 500.04579 
C 120.535149 502.211164 123.472438 503.427829 126.53474 503.427829 
z
" style="fill:#2070b4;fill-opacity:0.95;stroke:#ffffff;stroke-opacity:0.95;stroke-width:0.75;"/>
    <path clip-path="url(#p2a4293aff5)" d="M 525.180041 407.856962 
C 528.517107 407.856962 531.717945 406.531131 534.077607 404.17147 
C 536.437269 401.811808 537.763099 398.61097 537.763099 395.273904 
C 537.763099 391.936838 536.437269 388.736001 534.077607 386.376339 
C 531.717945 384.016677 528.517107 382.690847 525.180041 382.690847 
C 521.842976 382.690847 518.642138 384.016677 516.282476 386.376339 
C 513.922814 388.736001 512.596984 391.936838 512.596984 395.273904 
C 512.596984 398.61097 513.922814 401.811808 516.282476 404.17147 
C 518.642138 406.531131 521.842976 407.856962 525.180041 407.856962 
z
" style="fill:#1764ab;fill-opacity:0.95;stroke:#ffffff;stroke-opacity:0.95;stroke-width:0.75;"/>
    <path clip-path="url(#p2a4293aff5)" d="M 624.841367 344.098048 
C 628.349674 344.098048 631.714762 342.704182 634.19551 340.223435 
C 636.676258 337.742687 638.070123 334.377598 638.070123 330.869291 
C 638.070123 327.360984 636.676258 323.995896 634.19551 321.515148 
C 631.714762 319.0344 628.349674 317.640535 624.841367 317.640535 
C 621.33306 317.640535 617.967971 319.0344 615.487223 321.515148 
C 613.006475 323.995896 611.61261 327.360984 611.61261 330.869291 
C 611.61261 334.377598 613.006475 337.742687 615.487223 340.223435 
C 617.967971 342.704182 621.33306 344.098048 624.841367 344.098048 
z
" style="fill:#0d57a1;fill-opacity:0.95;stroke:#ffffff;stroke-opacity:0.95;stroke-width:0.75;"/>
    <path clip-path="url(#p2a4293aff5)" d="M 525.180041 344.098048 
C 528.688349 344.098048 532.053437 342.704182 534.534185 340.223435 
C 537.014933 337.742687 538.408798 334.377598 538.408798 330.869291 
C 538.408798 327.360984 537.014933 323.995896 534.534185 321.515148 
C 532.053437 319.0344 528.688349 317.640535 525.180041 317.640535 
C 521.671734 317.640535 518.306646 319.0344 515.825898 321.515148 
C 513.34515 323.995896 511.951285 327.360984 511.951285 330.869291 
C 511.951285 334.377598 513.34515 337.742687 515.825898 340.223435 
C 518.306646 342.704182 521.671734 344.098048 525.180041 344.098048 
z
" style="fill:#084a91;fill-opacity:0.95;stroke:#ffffff;stroke-opacity:0.95;stroke-width:0.75;"/>
    <path clip-path="url(#p2a4293aff5)" d="M 425.518716 407.856962 
C 428.855782 407.856962 432.056619 406.531131 434.416281 404.17147 
C 436.775943 401.811808 438.101774 398.61097 438.101774 395.273904 
C 438.101774 391.936838 436.775943 388.736001 434.416281 386.376339 
C 432.056619 384.016677 428.855782 382.690847 425.518716 382.690847 
C 422.18165 382.690847 418.980813 384.016677 416.621151 386.376339 
C 414.261489 388.736001 412.935659 391.936838 412.935659 395.273904 
C 412.935659 398.61097 414.261489 401.811808 416.621151 404.17147 
C 418.980813 406.531131 422.18165 407.856962 425.518716 407.856962 
z
" style="fill:#083c7d;fill-opacity:0.95;stroke:#ffffff;stroke-opacity:0.95;stroke-width:0.75;"/>
    <path clip-path="url(#p2a4293aff5)" d="M 458.739158 407.856962 
C 462.076224 407.856962 465.277061 406.531131 467.636723 404.17147 
C 469.996385 401.811808 471.322215 398.61097 471.322215 395.273904 
C 471.322215 391.936838 469.996385 388.736001 467.636723 386.376339 
C 465.277061 384.016677 462.076224 382.690847 458.739158 382.690847 
C 455.402092 382.690847 452.201255 384.016677 449.841593 386.376339 
C 447.481931 388.736001 446.1561 391.936838 446.1561 395.273904 
C 446.1561 398.61097 447.481931 401.811808 449.841593 404.17147 
C 452.201255 406.531131 455.402092 407.856962 458.739158 407.856962 
z
" style="fill:#08306b;fill-opacity:0.95;stroke:#ffffff;stroke-opacity:0.95;stroke-width:0.75;"/>
   </g>
   <g id="patch_3">
    <path d="M 65.030844 649.716 
L 65.030844 12 
" style="fill:none;stroke:#262626;stroke-linecap:square;stroke-linejoin:miter;"/>
   </g>
   <g id="patch_4">
    <path d="M 65.030844 649.716 
L 686.366844 649.716 
" style="fill:none;stroke:#262626;stroke-linecap:square;stroke-linejoin:miter;"/>
   </g>
  </g>
 </g>
 <defs>
  <clipPath id="p2a4293aff5">
   <rect height="637.716" width="621.336" x="65.030844" y="12"/>
  </clipPath>
 </defs>
</svg>
