<?xml version="1.0" encoding="utf-8" standalone="no"?>
<!DOCTYPE svg PUBLIC "-//W3C//DTD SVG 1.1//EN"
  "http://www.w3.org/Graphics/SVG/1.1/DTD/svg11.dtd">
<!-- Created with matplotlib (https://matplotlib.org/) -->
<svg height="698.879156pt" version="1.1" viewBox="0 0 698.385219 698.879156" width="698.385219pt" xmlns="http://www.w3.org/2000/svg" xmlns:xlink="http://www.w3.org/1999/xlink">
 <defs>
  <style type="text/css">
*{stroke-linecap:butt;stroke-linejoin:round;}
  </style>
 </defs>
 <g id="figure_1">
  <g id="patch_1">
   <path d="M -0 698.879156 
L 698.385219 698.879156 
L 698.385219 0 
L -0 0 
z
" style="fill:none;"/>
  </g>
  <g id="axes_1">
   <g id="patch_2">
    <path d="M 65.049219 649.716 
L 686.385219 649.716 
L 686.385219 12 
L 65.049219 12 
z
" style="fill:none;"/>
   </g>
   <g id="matplotlib.axis_1">
    <g id="xtick_1">
     <g id="line2d_1">
      <defs>
       <path d="M 0 0 
L 0 4.8 
" id="m2ac6393a5d" style="stroke:#262626;"/>
      </defs>
      <g>
       <use style="fill:#262626;stroke:#262626;" x="93.551548" xlink:href="#m2ac6393a5d" y="649.716"/>
      </g>
     </g>
     <g id="text_1">
      <!-- 55.0 -->
      <defs>
       <path d="M 4.15625 18.75 
L 13.375 19.53125 
Q 14.40625 12.796875 18.140625 9.390625 
Q 21.875 6 27.15625 6 
Q 33.5 6 37.890625 10.78125 
Q 42.28125 15.578125 42.28125 23.484375 
Q 42.28125 31 38.0625 35.34375 
Q 33.84375 39.703125 27 39.703125 
Q 22.75 39.703125 19.328125 37.765625 
Q 15.921875 35.84375 13.96875 32.765625 
L 5.71875 33.84375 
L 12.640625 70.609375 
L 48.25 70.609375 
L 48.25 62.203125 
L 19.671875 62.203125 
L 15.828125 42.96875 
Q 22.265625 47.46875 29.34375 47.46875 
Q 38.71875 47.46875 45.15625 40.96875 
Q 51.609375 34.46875 51.609375 24.265625 
Q 51.609375 14.546875 45.953125 7.46875 
Q 39.0625 -1.21875 27.15625 -1.21875 
Q 17.390625 -1.21875 11.203125 4.25 
Q 5.03125 9.71875 4.15625 18.75 
z
" id="ArialMT-53"/>
       <path d="M 9.078125 0 
L 9.078125 10.015625 
L 19.09375 10.015625 
L 19.09375 0 
z
" id="ArialMT-46"/>
       <path d="M 4.15625 35.296875 
Q 4.15625 48 6.765625 55.734375 
Q 9.375 63.484375 14.515625 67.671875 
Q 19.671875 71.875 27.484375 71.875 
Q 33.25 71.875 37.59375 69.546875 
Q 41.9375 67.234375 44.765625 62.859375 
Q 47.609375 58.5 49.21875 52.21875 
Q 50.828125 45.953125 50.828125 35.296875 
Q 50.828125 22.703125 48.234375 14.96875 
Q 45.65625 7.234375 40.5 3 
Q 35.359375 -1.21875 27.484375 -1.21875 
Q 17.140625 -1.21875 11.234375 6.203125 
Q 4.15625 15.140625 4.15625 35.296875 
z
M 13.1875 35.296875 
Q 13.1875 17.671875 17.3125 11.828125 
Q 21.4375 6 27.484375 6 
Q 33.546875 6 37.671875 11.859375 
Q 41.796875 17.71875 41.796875 35.296875 
Q 41.796875 52.984375 37.671875 58.78125 
Q 33.546875 64.59375 27.390625 64.59375 
Q 21.34375 64.59375 17.71875 59.46875 
Q 13.1875 52.9375 13.1875 35.296875 
z
" id="ArialMT-48"/>
      </defs>
      <g style="fill:#262626;" transform="translate(78.566626 669.039031)scale(0.154 -0.154)">
       <use xlink:href="#ArialMT-53"/>
       <use x="55.615234" xlink:href="#ArialMT-53"/>
       <use x="111.230469" xlink:href="#ArialMT-46"/>
       <use x="139.013672" xlink:href="#ArialMT-48"/>
      </g>
     </g>
    </g>
    <g id="xtick_2">
     <g id="line2d_2">
      <g>
       <use style="fill:#262626;stroke:#262626;" x="164.10188" xlink:href="#m2ac6393a5d" y="649.716"/>
      </g>
     </g>
     <g id="text_2">
      <!-- 55.5 -->
      <g style="fill:#262626;" transform="translate(149.116958 669.039031)scale(0.154 -0.154)">
       <use xlink:href="#ArialMT-53"/>
       <use x="55.615234" xlink:href="#ArialMT-53"/>
       <use x="111.230469" xlink:href="#ArialMT-46"/>
       <use x="139.013672" xlink:href="#ArialMT-53"/>
      </g>
     </g>
    </g>
    <g id="xtick_3">
     <g id="line2d_3">
      <g>
       <use style="fill:#262626;stroke:#262626;" x="234.652212" xlink:href="#m2ac6393a5d" y="649.716"/>
      </g>
     </g>
     <g id="text_3">
      <!-- 56.0 -->
      <defs>
       <path d="M 49.75 54.046875 
L 41.015625 53.375 
Q 39.84375 58.546875 37.703125 60.890625 
Q 34.125 64.65625 28.90625 64.65625 
Q 24.703125 64.65625 21.53125 62.3125 
Q 17.390625 59.28125 14.984375 53.46875 
Q 12.59375 47.65625 12.5 36.921875 
Q 15.671875 41.75 20.265625 44.09375 
Q 24.859375 46.4375 29.890625 46.4375 
Q 38.671875 46.4375 44.84375 39.96875 
Q 51.03125 33.5 51.03125 23.25 
Q 51.03125 16.5 48.125 10.71875 
Q 45.21875 4.9375 40.140625 1.859375 
Q 35.0625 -1.21875 28.609375 -1.21875 
Q 17.625 -1.21875 10.6875 6.859375 
Q 3.765625 14.9375 3.765625 33.5 
Q 3.765625 54.25 11.421875 63.671875 
Q 18.109375 71.875 29.4375 71.875 
Q 37.890625 71.875 43.28125 67.140625 
Q 48.6875 62.40625 49.75 54.046875 
z
M 13.875 23.1875 
Q 13.875 18.65625 15.796875 14.5 
Q 17.71875 10.359375 21.1875 8.171875 
Q 24.65625 6 28.46875 6 
Q 34.03125 6 38.03125 10.484375 
Q 42.046875 14.984375 42.046875 22.703125 
Q 42.046875 30.125 38.078125 34.390625 
Q 34.125 38.671875 28.125 38.671875 
Q 22.171875 38.671875 18.015625 34.390625 
Q 13.875 30.125 13.875 23.1875 
z
" id="ArialMT-54"/>
      </defs>
      <g style="fill:#262626;" transform="translate(219.66729 669.039031)scale(0.154 -0.154)">
       <use xlink:href="#ArialMT-53"/>
       <use x="55.615234" xlink:href="#ArialMT-54"/>
       <use x="111.230469" xlink:href="#ArialMT-46"/>
       <use x="139.013672" xlink:href="#ArialMT-48"/>
      </g>
     </g>
    </g>
    <g id="xtick_4">
     <g id="line2d_4">
      <g>
       <use style="fill:#262626;stroke:#262626;" x="305.202545" xlink:href="#m2ac6393a5d" y="649.716"/>
      </g>
     </g>
     <g id="text_4">
      <!-- 56.5 -->
      <g style="fill:#262626;" transform="translate(290.217623 669.039031)scale(0.154 -0.154)">
       <use xlink:href="#ArialMT-53"/>
       <use x="55.615234" xlink:href="#ArialMT-54"/>
       <use x="111.230469" xlink:href="#ArialMT-46"/>
       <use x="139.013672" xlink:href="#ArialMT-53"/>
      </g>
     </g>
    </g>
    <g id="xtick_5">
     <g id="line2d_5">
      <g>
       <use style="fill:#262626;stroke:#262626;" x="375.752877" xlink:href="#m2ac6393a5d" y="649.716"/>
      </g>
     </g>
     <g id="text_5">
      <!-- 57.0 -->
      <defs>
       <path d="M 4.734375 62.203125 
L 4.734375 70.65625 
L 51.078125 70.65625 
L 51.078125 63.8125 
Q 44.234375 56.546875 37.515625 44.484375 
Q 30.8125 32.421875 27.15625 19.671875 
Q 24.515625 10.6875 23.78125 0 
L 14.75 0 
Q 14.890625 8.453125 18.0625 20.40625 
Q 21.234375 32.375 27.171875 43.484375 
Q 33.109375 54.59375 39.796875 62.203125 
z
" id="ArialMT-55"/>
      </defs>
      <g style="fill:#262626;" transform="translate(360.767955 669.039031)scale(0.154 -0.154)">
       <use xlink:href="#ArialMT-53"/>
       <use x="55.615234" xlink:href="#ArialMT-55"/>
       <use x="111.230469" xlink:href="#ArialMT-46"/>
       <use x="139.013672" xlink:href="#ArialMT-48"/>
      </g>
     </g>
    </g>
    <g id="xtick_6">
     <g id="line2d_6">
      <g>
       <use style="fill:#262626;stroke:#262626;" x="446.303209" xlink:href="#m2ac6393a5d" y="649.716"/>
      </g>
     </g>
     <g id="text_6">
      <!-- 57.5 -->
      <g style="fill:#262626;" transform="translate(431.318288 669.039031)scale(0.154 -0.154)">
       <use xlink:href="#ArialMT-53"/>
       <use x="55.615234" xlink:href="#ArialMT-55"/>
       <use x="111.230469" xlink:href="#ArialMT-46"/>
       <use x="139.013672" xlink:href="#ArialMT-53"/>
      </g>
     </g>
    </g>
    <g id="xtick_7">
     <g id="line2d_7">
      <g>
       <use style="fill:#262626;stroke:#262626;" x="516.853542" xlink:href="#m2ac6393a5d" y="649.716"/>
      </g>
     </g>
     <g id="text_7">
      <!-- 58.0 -->
      <defs>
       <path d="M 17.671875 38.8125 
Q 12.203125 40.828125 9.5625 44.53125 
Q 6.9375 48.25 6.9375 53.421875 
Q 6.9375 61.234375 12.546875 66.546875 
Q 18.171875 71.875 27.484375 71.875 
Q 36.859375 71.875 42.578125 66.421875 
Q 48.296875 60.984375 48.296875 53.171875 
Q 48.296875 48.1875 45.671875 44.5 
Q 43.0625 40.828125 37.75 38.8125 
Q 44.34375 36.671875 47.78125 31.875 
Q 51.21875 27.09375 51.21875 20.453125 
Q 51.21875 11.28125 44.71875 5.03125 
Q 38.234375 -1.21875 27.640625 -1.21875 
Q 17.046875 -1.21875 10.546875 5.046875 
Q 4.046875 11.328125 4.046875 20.703125 
Q 4.046875 27.6875 7.59375 32.390625 
Q 11.140625 37.109375 17.671875 38.8125 
z
M 15.921875 53.71875 
Q 15.921875 48.640625 19.1875 45.40625 
Q 22.46875 42.1875 27.6875 42.1875 
Q 32.765625 42.1875 36.015625 45.375 
Q 39.265625 48.578125 39.265625 53.21875 
Q 39.265625 58.0625 35.90625 61.359375 
Q 32.5625 64.65625 27.59375 64.65625 
Q 22.5625 64.65625 19.234375 61.421875 
Q 15.921875 58.203125 15.921875 53.71875 
z
M 13.09375 20.65625 
Q 13.09375 16.890625 14.875 13.375 
Q 16.65625 9.859375 20.171875 7.921875 
Q 23.6875 6 27.734375 6 
Q 34.03125 6 38.125 10.046875 
Q 42.234375 14.109375 42.234375 20.359375 
Q 42.234375 26.703125 38.015625 30.859375 
Q 33.796875 35.015625 27.4375 35.015625 
Q 21.234375 35.015625 17.15625 30.90625 
Q 13.09375 26.8125 13.09375 20.65625 
z
" id="ArialMT-56"/>
      </defs>
      <g style="fill:#262626;" transform="translate(501.86862 669.039031)scale(0.154 -0.154)">
       <use xlink:href="#ArialMT-53"/>
       <use x="55.615234" xlink:href="#ArialMT-56"/>
       <use x="111.230469" xlink:href="#ArialMT-46"/>
       <use x="139.013672" xlink:href="#ArialMT-48"/>
      </g>
     </g>
    </g>
    <g id="xtick_8">
     <g id="line2d_8">
      <g>
       <use style="fill:#262626;stroke:#262626;" x="587.403874" xlink:href="#m2ac6393a5d" y="649.716"/>
      </g>
     </g>
     <g id="text_8">
      <!-- 58.5 -->
      <g style="fill:#262626;" transform="translate(572.418952 669.039031)scale(0.154 -0.154)">
       <use xlink:href="#ArialMT-53"/>
       <use x="55.615234" xlink:href="#ArialMT-56"/>
       <use x="111.230469" xlink:href="#ArialMT-46"/>
       <use x="139.013672" xlink:href="#ArialMT-53"/>
      </g>
     </g>
    </g>
    <g id="xtick_9">
     <g id="line2d_9">
      <g>
       <use style="fill:#262626;stroke:#262626;" x="657.954207" xlink:href="#m2ac6393a5d" y="649.716"/>
      </g>
     </g>
     <g id="text_9">
      <!-- 59.0 -->
      <defs>
       <path d="M 5.46875 16.546875 
L 13.921875 17.328125 
Q 14.984375 11.375 18.015625 8.6875 
Q 21.046875 6 25.78125 6 
Q 29.828125 6 32.875 7.859375 
Q 35.9375 9.71875 37.890625 12.8125 
Q 39.84375 15.921875 41.15625 21.1875 
Q 42.484375 26.46875 42.484375 31.9375 
Q 42.484375 32.515625 42.4375 33.6875 
Q 39.796875 29.5 35.234375 26.875 
Q 30.671875 24.265625 25.34375 24.265625 
Q 16.453125 24.265625 10.296875 30.703125 
Q 4.15625 37.15625 4.15625 47.703125 
Q 4.15625 58.59375 10.578125 65.234375 
Q 17 71.875 26.65625 71.875 
Q 33.640625 71.875 39.421875 68.109375 
Q 45.21875 64.359375 48.21875 57.390625 
Q 51.21875 50.4375 51.21875 37.25 
Q 51.21875 23.53125 48.234375 15.40625 
Q 45.265625 7.28125 39.375 3.03125 
Q 33.5 -1.21875 25.59375 -1.21875 
Q 17.1875 -1.21875 11.859375 3.4375 
Q 6.546875 8.109375 5.46875 16.546875 
z
M 41.453125 48.140625 
Q 41.453125 55.71875 37.421875 60.15625 
Q 33.40625 64.59375 27.734375 64.59375 
Q 21.875 64.59375 17.53125 59.8125 
Q 13.1875 55.03125 13.1875 47.40625 
Q 13.1875 40.578125 17.3125 36.296875 
Q 21.4375 32.03125 27.484375 32.03125 
Q 33.59375 32.03125 37.515625 36.296875 
Q 41.453125 40.578125 41.453125 48.140625 
z
" id="ArialMT-57"/>
      </defs>
      <g style="fill:#262626;" transform="translate(642.969285 669.039031)scale(0.154 -0.154)">
       <use xlink:href="#ArialMT-53"/>
       <use x="55.615234" xlink:href="#ArialMT-57"/>
       <use x="111.230469" xlink:href="#ArialMT-46"/>
       <use x="139.013672" xlink:href="#ArialMT-48"/>
      </g>
     </g>
    </g>
    <g id="text_10">
     <!-- Opponent Goals -->
     <defs>
      <path d="M 4.828125 34.859375 
Q 4.828125 52.6875 14.390625 62.765625 
Q 23.96875 72.859375 39.109375 72.859375 
Q 49.03125 72.859375 56.984375 68.109375 
Q 64.9375 63.375 69.109375 54.90625 
Q 73.296875 46.4375 73.296875 35.6875 
Q 73.296875 24.8125 68.890625 16.21875 
Q 64.5 7.625 56.4375 3.203125 
Q 48.390625 -1.21875 39.0625 -1.21875 
Q 28.953125 -1.21875 20.984375 3.65625 
Q 13.03125 8.546875 8.921875 16.984375 
Q 4.828125 25.4375 4.828125 34.859375 
z
M 14.59375 34.71875 
Q 14.59375 21.78125 21.546875 14.328125 
Q 28.515625 6.890625 39.015625 6.890625 
Q 49.703125 6.890625 56.609375 14.40625 
Q 63.53125 21.921875 63.53125 35.75 
Q 63.53125 44.484375 60.578125 51 
Q 57.625 57.515625 51.921875 61.109375 
Q 46.234375 64.703125 39.15625 64.703125 
Q 29.109375 64.703125 21.84375 57.78125 
Q 14.59375 50.875 14.59375 34.71875 
z
" id="ArialMT-79"/>
      <path d="M 6.59375 -19.875 
L 6.59375 51.859375 
L 14.59375 51.859375 
L 14.59375 45.125 
Q 17.4375 49.078125 21 51.046875 
Q 24.5625 53.03125 29.640625 53.03125 
Q 36.28125 53.03125 41.359375 49.609375 
Q 46.4375 46.1875 49.015625 39.953125 
Q 51.609375 33.734375 51.609375 26.3125 
Q 51.609375 18.359375 48.75 11.984375 
Q 45.90625 5.609375 40.453125 2.21875 
Q 35.015625 -1.171875 29 -1.171875 
Q 24.609375 -1.171875 21.109375 0.6875 
Q 17.625 2.546875 15.375 5.375 
L 15.375 -19.875 
z
M 14.546875 25.640625 
Q 14.546875 15.625 18.59375 10.84375 
Q 22.65625 6.0625 28.421875 6.0625 
Q 34.28125 6.0625 38.453125 11.015625 
Q 42.625 15.96875 42.625 26.375 
Q 42.625 36.28125 38.546875 41.203125 
Q 34.46875 46.140625 28.8125 46.140625 
Q 23.1875 46.140625 18.859375 40.890625 
Q 14.546875 35.640625 14.546875 25.640625 
z
" id="ArialMT-112"/>
      <path d="M 3.328125 25.921875 
Q 3.328125 40.328125 11.328125 47.265625 
Q 18.015625 53.03125 27.640625 53.03125 
Q 38.328125 53.03125 45.109375 46.015625 
Q 51.90625 39.015625 51.90625 26.65625 
Q 51.90625 16.65625 48.90625 10.90625 
Q 45.90625 5.171875 40.15625 2 
Q 34.421875 -1.171875 27.640625 -1.171875 
Q 16.75 -1.171875 10.03125 5.8125 
Q 3.328125 12.796875 3.328125 25.921875 
z
M 12.359375 25.921875 
Q 12.359375 15.96875 16.703125 11.015625 
Q 21.046875 6.0625 27.640625 6.0625 
Q 34.1875 6.0625 38.53125 11.03125 
Q 42.875 16.015625 42.875 26.21875 
Q 42.875 35.84375 38.5 40.796875 
Q 34.125 45.75 27.640625 45.75 
Q 21.046875 45.75 16.703125 40.8125 
Q 12.359375 35.890625 12.359375 25.921875 
z
" id="ArialMT-111"/>
      <path d="M 6.59375 0 
L 6.59375 51.859375 
L 14.5 51.859375 
L 14.5 44.484375 
Q 20.21875 53.03125 31 53.03125 
Q 35.6875 53.03125 39.625 51.34375 
Q 43.5625 49.65625 45.515625 46.921875 
Q 47.46875 44.1875 48.25 40.4375 
Q 48.734375 37.984375 48.734375 31.890625 
L 48.734375 0 
L 39.9375 0 
L 39.9375 31.546875 
Q 39.9375 36.921875 38.90625 39.578125 
Q 37.890625 42.234375 35.28125 43.8125 
Q 32.671875 45.40625 29.15625 45.40625 
Q 23.53125 45.40625 19.453125 41.84375 
Q 15.375 38.28125 15.375 28.328125 
L 15.375 0 
z
" id="ArialMT-110"/>
      <path d="M 42.09375 16.703125 
L 51.171875 15.578125 
Q 49.03125 7.625 43.21875 3.21875 
Q 37.40625 -1.171875 28.375 -1.171875 
Q 17 -1.171875 10.328125 5.828125 
Q 3.65625 12.84375 3.65625 25.484375 
Q 3.65625 38.578125 10.390625 45.796875 
Q 17.140625 53.03125 27.875 53.03125 
Q 38.28125 53.03125 44.875 45.953125 
Q 51.46875 38.875 51.46875 26.03125 
Q 51.46875 25.25 51.421875 23.6875 
L 12.75 23.6875 
Q 13.234375 15.140625 17.578125 10.59375 
Q 21.921875 6.0625 28.421875 6.0625 
Q 33.25 6.0625 36.671875 8.59375 
Q 40.09375 11.140625 42.09375 16.703125 
z
M 13.234375 30.90625 
L 42.1875 30.90625 
Q 41.609375 37.453125 38.875 40.71875 
Q 34.671875 45.796875 27.984375 45.796875 
Q 21.921875 45.796875 17.796875 41.75 
Q 13.671875 37.703125 13.234375 30.90625 
z
" id="ArialMT-101"/>
      <path d="M 25.78125 7.859375 
L 27.046875 0.09375 
Q 23.34375 -0.6875 20.40625 -0.6875 
Q 15.625 -0.6875 12.984375 0.828125 
Q 10.359375 2.34375 9.28125 4.8125 
Q 8.203125 7.28125 8.203125 15.1875 
L 8.203125 45.015625 
L 1.765625 45.015625 
L 1.765625 51.859375 
L 8.203125 51.859375 
L 8.203125 64.703125 
L 16.9375 69.96875 
L 16.9375 51.859375 
L 25.78125 51.859375 
L 25.78125 45.015625 
L 16.9375 45.015625 
L 16.9375 14.703125 
Q 16.9375 10.9375 17.40625 9.859375 
Q 17.875 8.796875 18.921875 8.15625 
Q 19.96875 7.515625 21.921875 7.515625 
Q 23.390625 7.515625 25.78125 7.859375 
z
" id="ArialMT-116"/>
      <path id="ArialMT-32"/>
      <path d="M 41.21875 28.078125 
L 41.21875 36.46875 
L 71.53125 36.53125 
L 71.53125 9.96875 
Q 64.546875 4.390625 57.125 1.578125 
Q 49.703125 -1.21875 41.890625 -1.21875 
Q 31.34375 -1.21875 22.71875 3.296875 
Q 14.109375 7.8125 9.71875 16.359375 
Q 5.328125 24.90625 5.328125 35.453125 
Q 5.328125 45.90625 9.6875 54.953125 
Q 14.0625 64.015625 22.265625 68.40625 
Q 30.46875 72.796875 41.15625 72.796875 
Q 48.921875 72.796875 55.1875 70.28125 
Q 61.46875 67.78125 65.03125 63.28125 
Q 68.609375 58.796875 70.453125 51.5625 
L 61.921875 49.21875 
Q 60.296875 54.6875 57.90625 57.8125 
Q 55.515625 60.9375 51.0625 62.8125 
Q 46.625 64.703125 41.21875 64.703125 
Q 34.71875 64.703125 29.984375 62.71875 
Q 25.25 60.75 22.34375 57.515625 
Q 19.4375 54.296875 17.828125 50.4375 
Q 15.09375 43.796875 15.09375 36.03125 
Q 15.09375 26.46875 18.390625 20.015625 
Q 21.6875 13.578125 27.984375 10.453125 
Q 34.28125 7.328125 41.359375 7.328125 
Q 47.515625 7.328125 53.375 9.6875 
Q 59.234375 12.0625 62.25 14.75 
L 62.25 28.078125 
z
" id="ArialMT-71"/>
      <path d="M 40.4375 6.390625 
Q 35.546875 2.25 31.03125 0.53125 
Q 26.515625 -1.171875 21.34375 -1.171875 
Q 12.796875 -1.171875 8.203125 3 
Q 3.609375 7.171875 3.609375 13.671875 
Q 3.609375 17.484375 5.34375 20.625 
Q 7.078125 23.78125 9.890625 25.6875 
Q 12.703125 27.59375 16.21875 28.5625 
Q 18.796875 29.25 24.03125 29.890625 
Q 34.671875 31.15625 39.703125 32.90625 
Q 39.75 34.71875 39.75 35.203125 
Q 39.75 40.578125 37.25 42.78125 
Q 33.890625 45.75 27.25 45.75 
Q 21.046875 45.75 18.09375 43.578125 
Q 15.140625 41.40625 13.71875 35.890625 
L 5.125 37.0625 
Q 6.296875 42.578125 8.984375 45.96875 
Q 11.671875 49.359375 16.75 51.1875 
Q 21.828125 53.03125 28.515625 53.03125 
Q 35.15625 53.03125 39.296875 51.46875 
Q 43.453125 49.90625 45.40625 47.53125 
Q 47.359375 45.171875 48.140625 41.546875 
Q 48.578125 39.3125 48.578125 33.453125 
L 48.578125 21.734375 
Q 48.578125 9.46875 49.140625 6.21875 
Q 49.703125 2.984375 51.375 0 
L 42.1875 0 
Q 40.828125 2.734375 40.4375 6.390625 
z
M 39.703125 26.03125 
Q 34.90625 24.078125 25.34375 22.703125 
Q 19.921875 21.921875 17.671875 20.9375 
Q 15.4375 19.96875 14.203125 18.09375 
Q 12.984375 16.21875 12.984375 13.921875 
Q 12.984375 10.40625 15.640625 8.0625 
Q 18.3125 5.71875 23.4375 5.71875 
Q 28.515625 5.71875 32.46875 7.9375 
Q 36.421875 10.15625 38.28125 14.015625 
Q 39.703125 17 39.703125 22.796875 
z
" id="ArialMT-97"/>
      <path d="M 6.390625 0 
L 6.390625 71.578125 
L 15.1875 71.578125 
L 15.1875 0 
z
" id="ArialMT-108"/>
      <path d="M 3.078125 15.484375 
L 11.765625 16.84375 
Q 12.5 11.625 15.84375 8.84375 
Q 19.1875 6.0625 25.203125 6.0625 
Q 31.25 6.0625 34.171875 8.515625 
Q 37.109375 10.984375 37.109375 14.3125 
Q 37.109375 17.28125 34.515625 19 
Q 32.71875 20.171875 25.53125 21.96875 
Q 15.875 24.421875 12.140625 26.203125 
Q 8.40625 27.984375 6.46875 31.125 
Q 4.546875 34.28125 4.546875 38.09375 
Q 4.546875 41.546875 6.125 44.5 
Q 7.71875 47.46875 10.453125 49.421875 
Q 12.5 50.921875 16.03125 51.96875 
Q 19.578125 53.03125 23.640625 53.03125 
Q 29.734375 53.03125 34.34375 51.265625 
Q 38.96875 49.515625 41.15625 46.5 
Q 43.359375 43.5 44.1875 38.484375 
L 35.59375 37.3125 
Q 35.015625 41.3125 32.203125 43.546875 
Q 29.390625 45.796875 24.265625 45.796875 
Q 18.21875 45.796875 15.625 43.796875 
Q 13.03125 41.796875 13.03125 39.109375 
Q 13.03125 37.40625 14.109375 36.03125 
Q 15.1875 34.625 17.484375 33.6875 
Q 18.796875 33.203125 25.25 31.453125 
Q 34.578125 28.953125 38.25 27.359375 
Q 41.9375 25.78125 44.03125 22.75 
Q 46.140625 19.734375 46.140625 15.234375 
Q 46.140625 10.84375 43.578125 6.953125 
Q 41.015625 3.078125 36.171875 0.953125 
Q 31.34375 -1.171875 25.25 -1.171875 
Q 15.140625 -1.171875 9.84375 3.03125 
Q 4.546875 7.234375 3.078125 15.484375 
z
" id="ArialMT-115"/>
     </defs>
     <g style="fill:#262626;" transform="translate(314.546844 688.340156)scale(0.168 -0.168)">
      <use xlink:href="#ArialMT-79"/>
      <use x="77.783203" xlink:href="#ArialMT-112"/>
      <use x="133.398438" xlink:href="#ArialMT-112"/>
      <use x="189.013672" xlink:href="#ArialMT-111"/>
      <use x="244.628906" xlink:href="#ArialMT-110"/>
      <use x="300.244141" xlink:href="#ArialMT-101"/>
      <use x="355.859375" xlink:href="#ArialMT-110"/>
      <use x="411.474609" xlink:href="#ArialMT-116"/>
      <use x="439.257812" xlink:href="#ArialMT-32"/>
      <use x="467.041016" xlink:href="#ArialMT-71"/>
      <use x="544.824219" xlink:href="#ArialMT-111"/>
      <use x="600.439453" xlink:href="#ArialMT-97"/>
      <use x="656.054688" xlink:href="#ArialMT-108"/>
      <use x="678.271484" xlink:href="#ArialMT-115"/>
     </g>
    </g>
   </g>
   <g id="matplotlib.axis_2">
    <g id="ytick_1">
     <g id="line2d_10">
      <defs>
       <path d="M 0 0 
L -4.8 0 
" id="md5945b332c" style="stroke:#262626;"/>
      </defs>
      <g>
       <use style="fill:#262626;stroke:#262626;" x="65.049219" xlink:href="#md5945b332c" y="586.591552"/>
      </g>
     </g>
     <g id="text_11">
      <!-- 5.0 -->
      <g style="fill:#262626;" transform="translate(35.343219 592.103068)scale(0.154 -0.154)">
       <use xlink:href="#ArialMT-53"/>
       <use x="55.615234" xlink:href="#ArialMT-46"/>
       <use x="83.398438" xlink:href="#ArialMT-48"/>
      </g>
     </g>
    </g>
    <g id="ytick_2">
     <g id="line2d_11">
      <g>
       <use style="fill:#262626;stroke:#262626;" x="65.049219" xlink:href="#md5945b332c" y="501.35102"/>
      </g>
     </g>
     <g id="text_12">
      <!-- 7.5 -->
      <g style="fill:#262626;" transform="translate(35.343219 506.862535)scale(0.154 -0.154)">
       <use xlink:href="#ArialMT-55"/>
       <use x="55.615234" xlink:href="#ArialMT-46"/>
       <use x="83.398438" xlink:href="#ArialMT-53"/>
      </g>
     </g>
    </g>
    <g id="ytick_3">
     <g id="line2d_12">
      <g>
       <use style="fill:#262626;stroke:#262626;" x="65.049219" xlink:href="#md5945b332c" y="416.110488"/>
      </g>
     </g>
     <g id="text_13">
      <!-- 10.0 -->
      <defs>
       <path d="M 37.25 0 
L 28.46875 0 
L 28.46875 56 
Q 25.296875 52.984375 20.140625 49.953125 
Q 14.984375 46.921875 10.890625 45.40625 
L 10.890625 53.90625 
Q 18.265625 57.375 23.78125 62.296875 
Q 29.296875 67.234375 31.59375 71.875 
L 37.25 71.875 
z
" id="ArialMT-49"/>
      </defs>
      <g style="fill:#262626;" transform="translate(26.779375 421.622003)scale(0.154 -0.154)">
       <use xlink:href="#ArialMT-49"/>
       <use x="55.615234" xlink:href="#ArialMT-48"/>
       <use x="111.230469" xlink:href="#ArialMT-46"/>
       <use x="139.013672" xlink:href="#ArialMT-48"/>
      </g>
     </g>
    </g>
    <g id="ytick_4">
     <g id="line2d_13">
      <g>
       <use style="fill:#262626;stroke:#262626;" x="65.049219" xlink:href="#md5945b332c" y="330.869955"/>
      </g>
     </g>
     <g id="text_14">
      <!-- 12.5 -->
      <defs>
       <path d="M 50.34375 8.453125 
L 50.34375 0 
L 3.03125 0 
Q 2.9375 3.171875 4.046875 6.109375 
Q 5.859375 10.9375 9.828125 15.625 
Q 13.8125 20.3125 21.34375 26.46875 
Q 33.015625 36.03125 37.109375 41.625 
Q 41.21875 47.21875 41.21875 52.203125 
Q 41.21875 57.421875 37.46875 61 
Q 33.734375 64.59375 27.734375 64.59375 
Q 21.390625 64.59375 17.578125 60.78125 
Q 13.765625 56.984375 13.71875 50.25 
L 4.6875 51.171875 
Q 5.609375 61.28125 11.65625 66.578125 
Q 17.71875 71.875 27.9375 71.875 
Q 38.234375 71.875 44.234375 66.15625 
Q 50.25 60.453125 50.25 52 
Q 50.25 47.703125 48.484375 43.546875 
Q 46.734375 39.40625 42.65625 34.8125 
Q 38.578125 30.21875 29.109375 22.21875 
Q 21.1875 15.578125 18.9375 13.203125 
Q 16.703125 10.84375 15.234375 8.453125 
z
" id="ArialMT-50"/>
      </defs>
      <g style="fill:#262626;" transform="translate(26.779375 336.381471)scale(0.154 -0.154)">
       <use xlink:href="#ArialMT-49"/>
       <use x="55.615234" xlink:href="#ArialMT-50"/>
       <use x="111.230469" xlink:href="#ArialMT-46"/>
       <use x="139.013672" xlink:href="#ArialMT-53"/>
      </g>
     </g>
    </g>
    <g id="ytick_5">
     <g id="line2d_14">
      <g>
       <use style="fill:#262626;stroke:#262626;" x="65.049219" xlink:href="#md5945b332c" y="245.629423"/>
      </g>
     </g>
     <g id="text_15">
      <!-- 15.0 -->
      <g style="fill:#262626;" transform="translate(26.779375 251.140939)scale(0.154 -0.154)">
       <use xlink:href="#ArialMT-49"/>
       <use x="55.615234" xlink:href="#ArialMT-53"/>
       <use x="111.230469" xlink:href="#ArialMT-46"/>
       <use x="139.013672" xlink:href="#ArialMT-48"/>
      </g>
     </g>
    </g>
    <g id="ytick_6">
     <g id="line2d_15">
      <g>
       <use style="fill:#262626;stroke:#262626;" x="65.049219" xlink:href="#md5945b332c" y="160.388891"/>
      </g>
     </g>
     <g id="text_16">
      <!-- 17.5 -->
      <g style="fill:#262626;" transform="translate(26.779375 165.900406)scale(0.154 -0.154)">
       <use xlink:href="#ArialMT-49"/>
       <use x="55.615234" xlink:href="#ArialMT-55"/>
       <use x="111.230469" xlink:href="#ArialMT-46"/>
       <use x="139.013672" xlink:href="#ArialMT-53"/>
      </g>
     </g>
    </g>
    <g id="ytick_7">
     <g id="line2d_16">
      <g>
       <use style="fill:#262626;stroke:#262626;" x="65.049219" xlink:href="#md5945b332c" y="75.148358"/>
      </g>
     </g>
     <g id="text_17">
      <!-- 20.0 -->
      <g style="fill:#262626;" transform="translate(26.779375 80.659874)scale(0.154 -0.154)">
       <use xlink:href="#ArialMT-50"/>
       <use x="55.615234" xlink:href="#ArialMT-48"/>
       <use x="111.230469" xlink:href="#ArialMT-46"/>
       <use x="139.013672" xlink:href="#ArialMT-48"/>
      </g>
     </g>
    </g>
    <g id="text_18">
     <!-- Opponent Possessions -->
     <defs>
      <path d="M 7.71875 0 
L 7.71875 71.578125 
L 34.71875 71.578125 
Q 41.84375 71.578125 45.609375 70.90625 
Q 50.875 70.015625 54.4375 67.546875 
Q 58.015625 65.09375 60.1875 60.640625 
Q 62.359375 56.203125 62.359375 50.875 
Q 62.359375 41.75 56.546875 35.421875 
Q 50.734375 29.109375 35.546875 29.109375 
L 17.1875 29.109375 
L 17.1875 0 
z
M 17.1875 37.546875 
L 35.6875 37.546875 
Q 44.875 37.546875 48.734375 40.96875 
Q 52.59375 44.390625 52.59375 50.59375 
Q 52.59375 55.078125 50.3125 58.265625 
Q 48.046875 61.46875 44.34375 62.5 
Q 41.9375 63.140625 35.5 63.140625 
L 17.1875 63.140625 
z
" id="ArialMT-80"/>
      <path d="M 6.640625 61.46875 
L 6.640625 71.578125 
L 15.4375 71.578125 
L 15.4375 61.46875 
z
M 6.640625 0 
L 6.640625 51.859375 
L 15.4375 51.859375 
L 15.4375 0 
z
" id="ArialMT-105"/>
     </defs>
     <g style="fill:#262626;" transform="translate(19.440375 417.240187)rotate(-90)scale(0.168 -0.168)">
      <use xlink:href="#ArialMT-79"/>
      <use x="77.783203" xlink:href="#ArialMT-112"/>
      <use x="133.398438" xlink:href="#ArialMT-112"/>
      <use x="189.013672" xlink:href="#ArialMT-111"/>
      <use x="244.628906" xlink:href="#ArialMT-110"/>
      <use x="300.244141" xlink:href="#ArialMT-101"/>
      <use x="355.859375" xlink:href="#ArialMT-110"/>
      <use x="411.474609" xlink:href="#ArialMT-116"/>
      <use x="439.257812" xlink:href="#ArialMT-32"/>
      <use x="467.041016" xlink:href="#ArialMT-80"/>
      <use x="533.740234" xlink:href="#ArialMT-111"/>
      <use x="589.355469" xlink:href="#ArialMT-115"/>
      <use x="639.355469" xlink:href="#ArialMT-115"/>
      <use x="689.355469" xlink:href="#ArialMT-101"/>
      <use x="744.970703" xlink:href="#ArialMT-115"/>
      <use x="794.970703" xlink:href="#ArialMT-115"/>
      <use x="844.970703" xlink:href="#ArialMT-105"/>
      <use x="867.1875" xlink:href="#ArialMT-111"/>
      <use x="922.802734" xlink:href="#ArialMT-110"/>
      <use x="978.417969" xlink:href="#ArialMT-115"/>
     </g>
    </g>
   </g>
   <g id="PathCollection_1">
    <path clip-path="url(#p266af9c384)" d="M 234.652212 428.477426 
C 237.931963 428.477426 241.077825 427.174368 243.396959 424.855234 
C 245.716092 422.5361 247.019151 419.390238 247.019151 416.110488 
C 247.019151 412.830737 245.716092 409.684875 243.396959 407.365741 
C 241.077825 405.046607 237.931963 403.743549 234.652212 403.743549 
C 231.372462 403.743549 228.2266 405.046607 225.907466 407.365741 
C 223.588332 409.684875 222.285273 412.830737 222.285273 416.110488 
C 222.285273 419.390238 223.588332 422.5361 225.907466 424.855234 
C 228.2266 427.174368 231.372462 428.477426 234.652212 428.477426 
z
" style="fill:#fff5f0;fill-opacity:0.95;stroke:#ffffff;stroke-opacity:0.95;stroke-width:0.75;"/>
    <path clip-path="url(#p266af9c384)" d="M 93.551548 495.934513 
C 96.636284 495.934513 99.595093 494.708935 101.776331 492.527697 
C 103.957569 490.346459 105.183148 487.38765 105.183148 484.302913 
C 105.183148 481.218177 103.957569 478.259368 101.776331 476.07813 
C 99.595093 473.896892 96.636284 472.671313 93.551548 472.671313 
C 90.466811 472.671313 87.508002 473.896892 85.326764 476.07813 
C 83.145526 478.259368 81.919948 481.218177 81.919948 484.302913 
C 81.919948 487.38765 83.145526 490.346459 85.326764 492.527697 
C 87.508002 494.708935 90.466811 495.934513 93.551548 495.934513 
z
" style="fill:#ffede5;fill-opacity:0.95;stroke:#ffffff;stroke-opacity:0.95;stroke-width:0.75;"/>
    <path clip-path="url(#p266af9c384)" d="M 93.551548 428.477426 
C 96.831298 428.477426 99.97716 427.174368 102.296294 424.855234 
C 104.615428 422.5361 105.918486 419.390238 105.918486 416.110488 
C 105.918486 412.830737 104.615428 409.684875 102.296294 407.365741 
C 99.97716 405.046607 96.831298 403.743549 93.551548 403.743549 
C 90.271797 403.743549 87.125935 405.046607 84.806801 407.365741 
C 82.487667 409.684875 81.184609 412.830737 81.184609 416.110488 
C 81.184609 419.390238 82.487667 422.5361 84.806801 424.855234 
C 87.125935 427.174368 90.271797 428.477426 93.551548 428.477426 
z
" style="fill:#fee5d8;fill-opacity:0.95;stroke:#ffffff;stroke-opacity:0.95;stroke-width:0.75;"/>
    <path clip-path="url(#p266af9c384)" d="M 93.551548 158.291684 
C 97.516573 158.291684 101.319734 156.716363 104.12343 153.912667 
C 106.927126 151.108971 108.502448 147.305809 108.502448 143.340784 
C 108.502448 139.375759 106.927126 135.572597 104.12343 132.768901 
C 101.319734 129.965205 97.516573 128.389884 93.551548 128.389884 
C 89.586523 128.389884 85.783361 129.965205 82.979665 132.768901 
C 80.175969 135.572597 78.600648 139.375759 78.600648 143.340784 
C 78.600648 147.305809 80.175969 151.108971 82.979665 153.912667 
C 85.783361 156.716363 89.586523 158.291684 93.551548 158.291684 
z
" style="fill:#fed9c9;fill-opacity:0.95;stroke:#ffffff;stroke-opacity:0.95;stroke-width:0.75;"/>
    <path clip-path="url(#p266af9c384)" d="M 93.551548 360.979005 
C 97.01535 360.979005 100.337751 359.602821 102.787029 357.153543 
C 105.236307 354.704265 106.612491 351.381864 106.612491 347.918062 
C 106.612491 344.454259 105.236307 341.131859 102.787029 338.68258 
C 100.337751 336.233302 97.01535 334.857119 93.551548 334.857119 
C 90.087745 334.857119 86.765344 336.233302 84.316066 338.68258 
C 81.866788 341.131859 80.490604 344.454259 80.490604 347.918062 
C 80.490604 351.381864 81.866788 354.704265 84.316066 357.153543 
C 86.765344 359.602821 90.087745 360.979005 93.551548 360.979005 
z
" style="fill:#fdcab5;fill-opacity:0.95;stroke:#ffffff;stroke-opacity:0.95;stroke-width:0.75;"/>
    <path clip-path="url(#p266af9c384)" d="M 234.652212 360.979005 
C 238.116015 360.979005 241.438415 359.602821 243.887694 357.153543 
C 246.336972 354.704265 247.713155 351.381864 247.713155 347.918062 
C 247.713155 344.454259 246.336972 341.131859 243.887694 338.68258 
C 241.438415 336.233302 238.116015 334.857119 234.652212 334.857119 
C 231.18841 334.857119 227.866009 336.233302 225.416731 338.68258 
C 222.967453 341.131859 221.591269 344.454259 221.591269 347.918062 
C 221.591269 351.381864 222.967453 354.704265 225.416731 357.153543 
C 227.866009 359.602821 231.18841 360.979005 234.652212 360.979005 
z
" style="fill:#fcbba1;fill-opacity:0.95;stroke:#ffffff;stroke-opacity:0.95;stroke-width:0.75;"/>
    <path clip-path="url(#p266af9c384)" d="M 93.551548 630.687765 
C 96.203579 630.687765 98.747346 629.634102 100.622615 627.758833 
C 102.497884 625.883564 103.551548 623.339796 103.551548 620.687765 
C 103.551548 618.035734 102.497884 615.491966 100.622615 613.616697 
C 98.747346 611.741428 96.203579 610.687765 93.551548 610.687765 
C 90.899517 610.687765 88.355749 611.741428 86.48048 613.616697 
C 84.605211 615.491966 83.551548 618.035734 83.551548 620.687765 
C 83.551548 623.339796 84.605211 625.883564 86.48048 627.758833 
C 88.355749 629.634102 90.899517 630.687765 93.551548 630.687765 
z
" style="fill:#fcab8f;fill-opacity:0.95;stroke:#ffffff;stroke-opacity:0.95;stroke-width:0.75;"/>
    <path clip-path="url(#p266af9c384)" d="M 93.551548 563.341862 
C 96.428079 563.341862 99.187183 562.199004 101.221197 560.164989 
C 103.255212 558.130974 104.39807 555.371871 104.39807 552.495339 
C 104.39807 549.618808 103.255212 546.859704 101.221197 544.825689 
C 99.187183 542.791674 96.428079 541.648816 93.551548 541.648816 
C 90.675016 541.648816 87.915913 542.791674 85.881898 544.825689 
C 83.847883 546.859704 82.705025 549.618808 82.705025 552.495339 
C 82.705025 555.371871 83.847883 558.130974 85.881898 560.164989 
C 87.915913 562.199004 90.675016 563.341862 93.551548 563.341862 
z
" style="fill:#fc9b7c;fill-opacity:0.95;stroke:#ffffff;stroke-opacity:0.95;stroke-width:0.75;"/>
    <path clip-path="url(#p266af9c384)" d="M 234.652212 327.216316 
C 238.204467 327.216316 241.611708 325.804991 244.123531 323.293168 
C 246.635354 320.781345 248.04668 317.374103 248.04668 313.821849 
C 248.04668 310.269594 246.635354 306.862353 244.123531 304.35053 
C 241.611708 301.838707 238.204467 300.427381 234.652212 300.427381 
C 231.099958 300.427381 227.692717 301.838707 225.180893 304.35053 
C 222.66907 306.862353 221.257745 310.269594 221.257745 313.821849 
C 221.257745 317.374103 222.66907 320.781345 225.180893 323.293168 
C 227.692717 325.804991 231.099958 327.216316 234.652212 327.216316 
z
" style="fill:#fc8a6a;fill-opacity:0.95;stroke:#ffffff;stroke-opacity:0.95;stroke-width:0.75;"/>
    <path clip-path="url(#p266af9c384)" d="M 93.551548 462.211601 
C 96.735285 462.211601 99.789052 460.946689 102.040294 458.695447 
C 104.291536 456.444205 105.556449 453.390437 105.556449 450.2067 
C 105.556449 447.022963 104.291536 443.969196 102.040294 441.717954 
C 99.789052 439.466712 96.735285 438.201799 93.551548 438.201799 
C 90.367811 438.201799 87.314043 439.466712 85.062801 441.717954 
C 82.811559 443.969196 81.546647 447.022963 81.546647 450.2067 
C 81.546647 453.390437 82.811559 456.444205 85.062801 458.695447 
C 87.314043 460.946689 90.367811 462.211601 93.551548 462.211601 
z
" style="fill:#fb7a5a;fill-opacity:0.95;stroke:#ffffff;stroke-opacity:0.95;stroke-width:0.75;"/>
    <path clip-path="url(#p266af9c384)" d="M 93.551548 597.023404 
C 96.318107 597.023404 98.971728 595.924238 100.927981 593.967985 
C 102.884234 592.011732 103.983399 589.358111 103.983399 586.591552 
C 103.983399 583.824993 102.884234 581.171372 100.927981 579.215119 
C 98.971728 577.258866 96.318107 576.1597 93.551548 576.1597 
C 90.784988 576.1597 88.131367 577.258866 86.175115 579.215119 
C 84.218862 581.171372 83.119696 583.824993 83.119696 586.591552 
C 83.119696 589.358111 84.218862 592.011732 86.175115 593.967985 
C 88.131367 595.924238 90.784988 597.023404 93.551548 597.023404 
z
" style="fill:#fb694a;fill-opacity:0.95;stroke:#ffffff;stroke-opacity:0.95;stroke-width:0.75;"/>
    <path clip-path="url(#p266af9c384)" d="M 234.652212 563.341862 
C 237.528744 563.341862 240.287847 562.199004 242.321862 560.164989 
C 244.355877 558.130974 245.498735 555.371871 245.498735 552.495339 
C 245.498735 549.618808 244.355877 546.859704 242.321862 544.825689 
C 240.287847 542.791674 237.528744 541.648816 234.652212 541.648816 
C 231.775681 541.648816 229.016577 542.791674 226.982562 544.825689 
C 224.948548 546.859704 223.805689 549.618808 223.805689 552.495339 
C 223.805689 555.371871 224.948548 558.130974 226.982562 560.164989 
C 229.016577 562.199004 231.775681 563.341862 234.652212 563.341862 
z
" style="fill:#f6583e;fill-opacity:0.95;stroke:#ffffff;stroke-opacity:0.95;stroke-width:0.75;"/>
    <path clip-path="url(#p266af9c384)" d="M 93.551548 597.023404 
C 96.318107 597.023404 98.971728 595.924238 100.927981 593.967985 
C 102.884234 592.011732 103.983399 589.358111 103.983399 586.591552 
C 103.983399 583.824993 102.884234 581.171372 100.927981 579.215119 
C 98.971728 577.258866 96.318107 576.1597 93.551548 576.1597 
C 90.784988 576.1597 88.131367 577.258866 86.175115 579.215119 
C 84.218862 581.171372 83.119696 583.824993 83.119696 586.591552 
C 83.119696 589.358111 84.218862 592.011732 86.175115 593.967985 
C 88.131367 595.924238 90.784988 597.023404 93.551548 597.023404 
z
" style="fill:#f14432;fill-opacity:0.95;stroke:#ffffff;stroke-opacity:0.95;stroke-width:0.75;"/>
    <path clip-path="url(#p266af9c384)" d="M 657.954207 563.341862 
C 660.830738 563.341862 663.589842 562.199004 665.623857 560.164989 
C 667.657871 558.130974 668.80073 555.371871 668.80073 552.495339 
C 668.80073 549.618808 667.657871 546.859704 665.623857 544.825689 
C 663.589842 542.791674 660.830738 541.648816 657.954207 541.648816 
C 655.077675 541.648816 652.318572 542.791674 650.284557 544.825689 
C 648.250542 546.859704 647.107684 549.618808 647.107684 552.495339 
C 647.107684 555.371871 648.250542 558.130974 650.284557 560.164989 
C 652.318572 562.199004 655.077675 563.341862 657.954207 563.341862 
z
" style="fill:#e83429;fill-opacity:0.95;stroke:#ffffff;stroke-opacity:0.95;stroke-width:0.75;"/>
    <path clip-path="url(#p266af9c384)" d="M 93.551548 225.881811 
C 97.356841 225.881811 101.006792 224.369952 103.697541 221.679203 
C 106.38829 218.988454 107.900149 215.338504 107.900149 211.53321 
C 107.900149 207.727917 106.38829 204.077966 103.697541 201.387217 
C 101.006792 198.696468 97.356841 197.184609 93.551548 197.184609 
C 89.746254 197.184609 86.096303 198.696468 83.405554 201.387217 
C 80.714806 204.077966 79.202946 207.727917 79.202946 211.53321 
C 79.202946 215.338504 80.714806 218.988454 83.405554 221.679203 
C 86.096303 224.369952 89.746254 225.881811 93.551548 225.881811 
z
" style="fill:#d92523;fill-opacity:0.95;stroke:#ffffff;stroke-opacity:0.95;stroke-width:0.75;"/>
    <path clip-path="url(#p266af9c384)" d="M 234.652212 56.863534 
C 238.845442 56.863534 242.867491 55.197546 245.832552 52.232485 
C 248.797613 49.267425 250.463601 45.245375 250.463601 41.052145 
C 250.463601 36.858916 248.797613 32.836866 245.832552 29.871806 
C 242.867491 26.906745 238.845442 25.240757 234.652212 25.240757 
C 230.458983 25.240757 226.436933 26.906745 223.471872 29.871806 
C 220.506812 32.836866 218.840824 36.858916 218.840824 41.052145 
C 218.840824 45.245375 220.506812 49.267425 223.471872 52.232485 
C 226.436933 55.197546 230.458983 56.863534 234.652212 56.863534 
z
" style="fill:#ca181d;fill-opacity:0.95;stroke:#ffffff;stroke-opacity:0.95;stroke-width:0.75;"/>
    <path clip-path="url(#p266af9c384)" d="M 93.551548 394.73295 
C 96.92458 394.73295 100.159915 393.39283 102.545009 391.007736 
C 104.930103 388.622642 106.270223 385.387307 106.270223 382.014275 
C 106.270223 378.641242 104.930103 375.405907 102.545009 373.020813 
C 100.159915 370.635719 96.92458 369.295599 93.551548 369.295599 
C 90.178515 369.295599 86.94318 370.635719 84.558086 373.020813 
C 82.172992 375.405907 80.832872 378.641242 80.832872 382.014275 
C 80.832872 385.387307 82.172992 388.622642 84.558086 391.007736 
C 86.94318 393.39283 90.178515 394.73295 93.551548 394.73295 
z
" style="fill:#bc141a;fill-opacity:0.95;stroke:#ffffff;stroke-opacity:0.95;stroke-width:0.75;"/>
    <path clip-path="url(#p266af9c384)" d="M 234.652212 327.216316 
C 238.204467 327.216316 241.611708 325.804991 244.123531 323.293168 
C 246.635354 320.781345 248.04668 317.374103 248.04668 313.821849 
C 248.04668 310.269594 246.635354 306.862353 244.123531 304.35053 
C 241.611708 301.838707 238.204467 300.427381 234.652212 300.427381 
C 231.099958 300.427381 227.692717 301.838707 225.180893 304.35053 
C 222.66907 306.862353 221.257745 310.269594 221.257745 313.821849 
C 221.257745 317.374103 222.66907 320.781345 225.180893 323.293168 
C 227.692717 325.804991 231.099958 327.216316 234.652212 327.216316 
z
" style="fill:#ac1117;fill-opacity:0.95;stroke:#ffffff;stroke-opacity:0.95;stroke-width:0.75;"/>
    <path clip-path="url(#p266af9c384)" d="M 93.551548 563.341862 
C 96.428079 563.341862 99.187183 562.199004 101.221197 560.164989 
C 103.255212 558.130974 104.39807 555.371871 104.39807 552.495339 
C 104.39807 549.618808 103.255212 546.859704 101.221197 544.825689 
C 99.187183 542.791674 96.428079 541.648816 93.551548 541.648816 
C 90.675016 541.648816 87.915913 542.791674 85.881898 544.825689 
C 83.847883 546.859704 82.705025 549.618808 82.705025 552.495339 
C 82.705025 555.371871 83.847883 558.130974 85.881898 560.164989 
C 87.915913 562.199004 90.675016 563.341862 93.551548 563.341862 
z
" style="fill:#980c13;fill-opacity:0.95;stroke:#ffffff;stroke-opacity:0.95;stroke-width:0.75;"/>
    <path clip-path="url(#p266af9c384)" d="M 375.752877 259.667187 
C 379.475736 259.667187 383.046617 258.18808 385.679075 255.555621 
C 388.311534 252.923163 389.790641 249.352282 389.790641 245.629423 
C 389.790641 241.906564 388.311534 238.335683 385.679075 235.703225 
C 383.046617 233.070766 379.475736 231.591659 375.752877 231.591659 
C 372.030019 231.591659 368.459137 233.070766 365.826679 235.703225 
C 363.19422 238.335683 361.715113 241.906564 361.715113 245.629423 
C 361.715113 249.352282 363.19422 252.923163 365.826679 255.555621 
C 368.459137 258.18808 372.030019 259.667187 375.752877 259.667187 
z
" style="fill:#7e0610;fill-opacity:0.95;stroke:#ffffff;stroke-opacity:0.95;stroke-width:0.75;"/>
    <path clip-path="url(#p266af9c384)" d="M 93.551548 259.667187 
C 97.274406 259.667187 100.845287 258.18808 103.477746 255.555621 
C 106.110204 252.923163 107.589312 249.352282 107.589312 245.629423 
C 107.589312 241.906564 106.110204 238.335683 103.477746 235.703225 
C 100.845287 233.070766 97.274406 231.591659 93.551548 231.591659 
C 89.828689 231.591659 86.257808 233.070766 83.625349 235.703225 
C 80.992891 238.335683 79.513783 241.906564 79.513783 245.629423 
C 79.513783 249.352282 80.992891 252.923163 83.625349 255.555621 
C 86.257808 258.18808 89.828689 259.667187 93.551548 259.667187 
z
" style="fill:#67000d;fill-opacity:0.95;stroke:#ffffff;stroke-opacity:0.95;stroke-width:0.75;"/>
   </g>
   <g id="patch_3">
    <path d="M 65.049219 649.716 
L 65.049219 12 
" style="fill:none;stroke:#262626;stroke-linecap:square;stroke-linejoin:miter;"/>
   </g>
   <g id="patch_4">
    <path d="M 65.049219 649.716 
L 686.385219 649.716 
" style="fill:none;stroke:#262626;stroke-linecap:square;stroke-linejoin:miter;"/>
   </g>
  </g>
 </g>
 <defs>
  <clipPath id="p266af9c384">
   <rect height="637.716" width="621.336" x="65.049219" y="12"/>
  </clipPath>
 </defs>
</svg>
